<?xml version="1.0" encoding="utf-8"?>
<!-- Generator: Adobe Illustrator 18.1.0, SVG Export Plug-In . SVG Version: 6.00 Build 0)  -->
<svg version="1.1" id="Layer_1" xmlns="http://www.w3.org/2000/svg" xmlns:xlink="http://www.w3.org/1999/xlink" x="0px" y="0px"
	 viewBox="0 0 2891.3 1417.3" enable-background="new 0 0 2891.3 1417.3" xml:space="preserve">
<defs>
	<filter id="Adobe_OpacityMaskFilter" filterUnits="userSpaceOnUse" x="-203.6" y="-94.4" width="3249.5" height="1600.9">
		
			<feColorMatrix  type="matrix" values="-1 0 0 0 1  0 -1 0 0 1  0 0 -1 0 1  0 0 0 1 0" color-interpolation-filters="sRGB" result="source"/>
		<feFlood  style="flood-color:white;flood-opacity:1" result="back"/>
		<feBlend  in="source" in2="back" mode="normal"/>
	</filter>
</defs>
<mask maskUnits="userSpaceOnUse" x="-203.6" y="-94.4" width="3249.5" height="1600.9" id="SVGID_1_">
	<g filter="url(#Adobe_OpacityMaskFilter)">
	</g>
</mask>
<g mask="url(#SVGID_1_)">
	<path fill="#E4462B" stroke="#E4462B" d="M-198.1-28.4l-4.8,575.4l35-329L-198.1-28.4z"/>
	<path fill="#E61E25" stroke="#E61E25" d="M-198.1-28.4l30.2,246.4L70.5,73.4L-198.1-28.4z"/>
	<path fill="#ED2024" stroke="#ED2024" d="M-198.1-28.4L70.5,73.4l310-73.1L-198.1-28.4z"/>
	<path fill="#EF3E28" stroke="#EF3E28" d="M-198.1-28.4L380.5,0.3L789-82.4L-198.1-28.4z"/>
	<path fill="#EB3D2E" stroke="#EB3D2E" d="M70.5,73.4L-167.9,218l286.1,46.1L70.5,73.4z"/>
	<path fill="#F15539" stroke="#F15539" d="M70.5,73.4l47.7,190.7l276.6-69.9L70.5,73.4z"/>
	<path fill="#EF4131" stroke="#EF4131" d="M70.5,73.4l324.3,120.8L380.5,0.3L70.5,73.4z"/>
	<path fill="#F26744" stroke="#F26744" d="M380.5,0.3l14.3,193.9l198.7,7.9L380.5,0.3z"/>
	<path fill="#F26544" stroke="#F26544" d="M380.5,0.3l213,201.9l87.4-131.9L380.5,0.3z"/>
	<path fill="#F15F3D" stroke="#F15F3D" d="M380.5,0.3l300.4,69.9L789-82.4L380.5,0.3z"/>
	<path fill="#F79462" stroke="#F79462" d="M680.9,70.2l-87.4,131.9l249.6,108.1L680.9,70.2z"/>
	<path fill="#F8A06E" stroke="#F8A06E" d="M680.9,70.2l162.1,240L1037,202.1L680.9,70.2z"/>
	<path fill="#F4795F" stroke="#F4795F" d="M680.9,70.2L1037,202.1l-38.1-240L680.9,70.2z"/>
	<path fill="#F26D4D" stroke="#F26D4D" d="M680.9,70.2L998.8-37.9L789-82.4L680.9,70.2z"/>
	<path fill="#F47A5D" stroke="#F47A5D" d="M789-82.4l209.8,44.5l292.5-54L789-82.4z"/>
	<path fill="#F47E62" stroke="#F47E62" d="M998.8-37.9l38.1,240l254.3-294.1L998.8-37.9z"/>
	<path fill="#F58F66" stroke="#F58F66" d="M1291.3-91.9L1037,202.1l335.4,19.1L1291.3-91.9z"/>
	<path fill="#E78358" stroke="#E78358" d="M1291.3-91.9l81.1,313.1l92.2-66.8L1291.3-91.9z"/>
	<path fill="#E17447" stroke="#E17447" d="M1291.3-91.9l173.3,246.4l147.8-125.6L1291.3-91.9z"/>
	<path fill="#D8703C" stroke="#D8703C" d="M1291.3-91.9l321.1,120.8l141.5-25.4L1291.3-91.9z"/>
	<path fill="#C1652E" stroke="#C1652E" d="M1291.3-91.9l462.6,95.4l465.7-97L1291.3-91.9z"/>
	<path fill="#DBA45E" stroke="#DBA45E" d="M1612.4,28.9l-147.8,125.6l71.5,254.3L1612.4,28.9z"/>
	<path fill="#CB9C54" stroke="#CB9C54" d="M1612.4,28.9l-76.3,379.9l327.4-262.3L1612.4,28.9z"/>
	<path fill="#C4673A" stroke="#C4673A" d="M1612.4,28.9l251.1,117.6L1753.9,3.4L1612.4,28.9z"/>
	<path fill="#B16037" stroke="#B16037" d="M1753.9,3.4l109.7,143.1l192.3-100.1L1753.9,3.4z"/>
	<path fill="#A05626" stroke="#A05626" d="M1753.9,3.4l302,42.9l163.7-139.9L1753.9,3.4z"/>
	<path fill="#A66E3C" stroke="#A66E3C" d="M2055.9,46.3l-192.3,100.1l117.6,14.3L2055.9,46.3z"/>
	<path fill="#956837" stroke="#956837" d="M2055.9,46.3l-74.7,114.4l300.4,4.8L2055.9,46.3z"/>
	<path fill="#8B4B25" stroke="#8B4B25" d="M2055.9,46.3l225.7,119.2l-62-259.1L2055.9,46.3z"/>
	<path fill="#80411D" stroke="#80411D" d="M2219.6-93.5l62,259.1l243.2-192.3L2219.6-93.5z"/>
	<path fill="#81361A" stroke="#81361A" d="M2219.6-93.5l305.2,66.8l317.9,1.6L2219.6-93.5z"/>
	<path fill="#81532B" stroke="#81532B" d="M2524.8-26.8l-243.2,192.3l170.1,57.2L2524.8-26.8z"/>
	<path fill="#814F28" stroke="#814F28" d="M2524.8-26.8l-73.1,249.6l243.2-25.4L2524.8-26.8z"/>
	<path fill="#812C19" stroke="#812C19" d="M2524.8-26.8l170.1,224.1l147.8-222.5L2524.8-26.8z"/>
	<path fill="#812519" stroke="#812519" d="M2842.7-25.2l-147.8,222.5l240-195.5L2842.7-25.2z"/>
	<path fill="#813C1C" stroke="#813C1C" d="M2934.9,1.8l-240,195.5l349.7,11.1L2934.9,1.8z"/>
	<path fill="#E77158" stroke="#E77158" d="M-167.9,218l-35,329l246.4-9.5L-167.9,218z"/>
	<path fill="#EB7448" stroke="#EB7448" d="M-167.9,218L43.5,537.5l74.7-273.4L-167.9,218z"/>
	<path fill="#F1956B" stroke="#F1956B" d="M118.2,264.1L43.5,537.5l265.5,6.4L118.2,264.1z"/>
	<path fill="#F69859" stroke="#F69859" d="M118.2,264.1L309,543.9l85.8-349.7L118.2,264.1z"/>
	<path fill="#FAB675" stroke="#FAB675" d="M394.8,194.2L309,543.9l246.4-39.7L394.8,194.2z"/>
	<path fill="#FAAC62" stroke="#FAAC62" d="M394.8,194.2l160.5,310l38.1-302L394.8,194.2z"/>
	<path fill="#FEC874" stroke="#FEC874" d="M593.5,202.1l-38.1,302l287.7-193.9L593.5,202.1z"/>
	<path fill="#FFDC98" stroke="#FFDC98" d="M843.1,310.2L555.4,504.1L932.1,528L843.1,310.2z"/>
	<path fill="#FEE6A4" stroke="#FEE6A4" d="M843.1,310.2l89,217.8l76.3-39.7L843.1,310.2z"/>
	<path fill="#FFDC8F" stroke="#FFDC8F" d="M843.1,310.2l165.3,178l28.6-286.1L843.1,310.2z"/>
	<path fill="#FAD88E" stroke="#FAD88E" d="M1037,202.1l-28.6,286.1l364-267L1037,202.1z"/>
	<path fill="#EFE595" stroke="#EFE595" d="M1372.4,221.2l-364,267l397.4-35L1372.4,221.2z"/>
	<path fill="#E2DE82" stroke="#E2DE82" d="M1372.4,221.2l33.4,232.1l130.3-44.5L1372.4,221.2z"/>
	<path fill="#E0BD6E" stroke="#E0BD6E" d="M1372.4,221.2l163.7,187.6l-71.5-254.3L1372.4,221.2z"/>
	<path fill="#C3CE6D" stroke="#C3CE6D" d="M1863.6,146.5l-327.4,262.3l292.5,97L1863.6,146.5z"/>
	<path fill="#B0AA5A" stroke="#B0AA5A" d="M1863.6,146.5l-35,359.2l152.6-344.9L1863.6,146.5z"/>
	<path fill="#A6C46F" stroke="#A6C46F" d="M1981.2,160.8l-152.6,344.9l254.3,17.5L1981.2,160.8z"/>
	<path fill="#93A151" stroke="#93A151" d="M1981.2,160.8l101.7,362.4l198.7-357.6L1981.2,160.8z"/>
	<path fill="#83B76A" stroke="#83B76A" d="M2281.6,165.6l-198.7,357.6l249.6,25.4L2281.6,165.6z"/>
	<path fill="#809C4E" stroke="#809C4E" d="M2281.6,165.6l50.9,383.1l119.2-325.9L2281.6,165.6z"/>
	<path fill="#80AD66" stroke="#80AD66" d="M2451.7,222.8l-119.2,325.9l98.6-33.4L2451.7,222.8z"/>
	<path fill="#809247" stroke="#809247" d="M2451.7,222.8L2431,515.3l263.9-317.9L2451.7,222.8z"/>
	<path fill="#80984F" stroke="#80984F" d="M2694.9,197.4L2431,515.3l389.4-116L2694.9,197.4z"/>
	<path fill="#806D33" stroke="#806D33" d="M2694.9,197.4l125.6,201.9l224.1-190.7L2694.9,197.4z"/>
	<path fill="#818848" stroke="#818848" d="M3044.6,208.5l-224.1,190.7l120.8,152.6L3044.6,208.5z"/>
	<path fill="#818F5F" stroke="#818F5F" d="M3044.6,208.5l-103.3,343.3l47.7,159L3044.6,208.5z"/>
	<path fill="#649740" stroke="#649740" d="M3044.6,208.5l-55.6,502.3l-27,794.8L3044.6,208.5z"/>
	<path fill="#835F2F" stroke="#835F2F" d="M-202.9,547.1l90.6,842.5l-1.6-268.6L-202.9,547.1z"/>
	<path fill="#C98043" stroke="#C98043" d="M-202.9,547.1l89,573.8L-144,766.4L-202.9,547.1z"/>
	<path fill="#E0806A" stroke="#E0806A" d="M-202.9,547.1l58.8,219.4L45.1,610.6L-202.9,547.1z"/>
	<path fill="#EA857B" stroke="#EA857B" d="M-202.9,547.1l248,63.6l-1.6-73.1L-202.9,547.1z"/>
	<path fill="#F09C86" stroke="#F09C86" d="M43.5,537.5l1.6,73.1L309,543.9L43.5,537.5z"/>
	<path fill="#F1AD8A" stroke="#F1AD8A" d="M309,543.9L45.1,610.6l329,33.4L309,543.9z"/>
	<path fill="#FBC498" stroke="#FBC498" d="M309,543.9L374.1,644l181.2-139.9L309,543.9z"/>
	<path fill="#F5CE91" stroke="#F5CE91" d="M555.4,504.1L374.1,644L514,769.6L555.4,504.1z"/>
	<path fill="#F5DB98" stroke="#F5DB98" d="M555.4,504.1L514,769.6l236.8-87.4L555.4,504.1z"/>
	<path fill="#FFE5B4" stroke="#FFE5B4" d="M555.4,504.1l195.5,178L932.1,528L555.4,504.1z"/>
	<path fill="#F8F4BC" stroke="#F8F4BC" d="M932.1,528L750.9,682.2l384.7-19.1L932.1,528z"/>
	<path fill="#FFF9CB" stroke="#FFF9CB" d="M932.1,528l203.5,135.1l-127.2-174.8L932.1,528z"/>
	<path fill="#F6F5C2" stroke="#F6F5C2" d="M1008.4,488.2l127.2,174.8l270.2-209.8L1008.4,488.2z"/>
	<path fill="#ECF1BE" stroke="#ECF1BE" d="M1405.8,453.3l-270.2,209.8l163.7,17.5L1405.8,453.3z"/>
	<path fill="#DFEBB1" stroke="#DFEBB1" d="M1405.8,453.3l-106.5,227.3L1641,644L1405.8,453.3z"/>
	<path fill="#DBE89E" stroke="#DBE89E" d="M1405.8,453.3L1641,644l-104.9-235.3L1405.8,453.3z"/>
	<path fill="#CDE299" stroke="#CDE299" d="M1536.1,408.8L1641,644l187.6-138.3L1536.1,408.8z"/>
	<path fill="#BADB96" stroke="#BADB96" d="M1828.6,505.7L1641,644l219.4,92.2L1828.6,505.7z"/>
	<path fill="#AAD698" stroke="#AAD698" d="M1828.6,505.7l31.8,230.5l222.5-213L1828.6,505.7z"/>
	<path fill="#99CE84" stroke="#99CE84" d="M2082.9,523.2l-222.5,213l154.2,41.3L2082.9,523.2z"/>
	<path fill="#89CA86" stroke="#89CA86" d="M2082.9,523.2l-68.4,254.3L2315,617L2082.9,523.2z"/>
	<path fill="#83C48D" stroke="#83C48D" d="M2082.9,523.2L2315,617l17.5-68.4L2082.9,523.2z"/>
	<path fill="#81BE87" stroke="#81BE87" d="M2332.5,548.6L2315,617l116-101.7L2332.5,548.6z"/>
	<path fill="#7BBD82" stroke="#7BBD82" d="M2431,515.3L2315,617l122.4,100.1L2431,515.3z"/>
	<path fill="#74B470" stroke="#74B470" d="M2431,515.3l6.4,201.9l265.5,65.2L2431,515.3z"/>
	<path fill="#80AB7E" stroke="#80AB7E" d="M2431,515.3l271.8,267l117.6-383.1L2431,515.3z"/>
	<path fill="#80A279" stroke="#80A279" d="M2820.5,399.2l-117.6,383.1l238.4-230.5L2820.5,399.2z"/>
	<path fill="#739E60" stroke="#739E60" d="M2941.3,551.8l-238.4,230.5l286.1-71.5L2941.3,551.8z"/>
	<path fill="#956736" stroke="#956736" d="M-144,766.4l30.2,354.5l84.2-101.7L-144,766.4z"/>
	<path fill="#B37E44" stroke="#B37E44" d="M-144,766.4l114.4,252.7L140.5,892L-144,766.4z"/>
	<path fill="#D68D59" stroke="#D68D59" d="M-144,766.4L140.5,892L45.1,610.6L-144,766.4z"/>
	<path fill="#E2A56E" stroke="#E2A56E" d="M45.1,610.6L140.5,892l233.7-248L45.1,610.6z"/>
	<path fill="#D9B661" stroke="#D9B661" d="M374.1,644L140.5,892l276.6,14.3L374.1,644z"/>
	<path fill="#E2C871" stroke="#E2C871" d="M374.1,644l42.9,262.3l97-136.7L374.1,644z"/>
	<path fill="#D3CE69" stroke="#D3CE69" d="M514,769.6l-97,136.7l230.5-23.8L514,769.6z"/>
	<path fill="#E6DE7E" stroke="#E6DE7E" d="M514,769.6l133.5,112.9l103.3-200.3L514,769.6z"/>
	<path fill="#D7E07E" stroke="#D7E07E" d="M750.9,682.2L647.6,882.4l178,93.8L750.9,682.2z"/>
	<path fill="#D3E389" stroke="#D3E389" d="M750.9,682.2l74.7,294.1l198.7-63.6L750.9,682.2z"/>
	<path fill="#E9EDA5" stroke="#E9EDA5" d="M750.9,682.2l273.4,230.5l111.3-249.6L750.9,682.2z"/>
	<path fill="#E3EBA6" stroke="#E3EBA6" d="M1135.5,663.1l-111.3,249.6l275-232.1L1135.5,663.1z"/>
	<path fill="#C2DD8C" stroke="#C2DD8C" d="M1299.3,680.6l-275,232.1l373.5,111.3L1299.3,680.6z"/>
	<path fill="#B7D881" stroke="#B7D881" d="M1299.3,680.6l98.6,343.3l68.4-100.1L1299.3,680.6z"/>
	<path fill="#CBE08F" stroke="#CBE08F" d="M1299.3,680.6l166.9,243.2L1641,644L1299.3,680.6z"/>
	<path fill="#A5D16F" stroke="#A5D16F" d="M1641,644l-174.8,279.8l352.9,108.1L1641,644z"/>
	<path fill="#A8D272" stroke="#A8D272" d="M1641,644l178,387.8l41.3-295.7L1641,644z"/>
	<path fill="#7CC364" stroke="#7CC364" d="M1860.4,736.2l-41.3,295.7l163.7-101.7L1860.4,736.2z"/>
	<path fill="#8FC968" stroke="#8FC968" d="M1860.4,736.2l122.4,193.9l31.8-152.6L1860.4,736.2z"/>
	<path fill="#71C061" stroke="#71C061" d="M2014.6,777.5l-31.8,152.6l201.9-35L2014.6,777.5z"/>
	<path fill="#7AC36B" stroke="#7AC36B" d="M2014.6,777.5l170.1,117.6L2315,617L2014.6,777.5z"/>
	<path fill="#6FC06B" stroke="#6FC06B" d="M2315,617l-130.3,278.2l252.7-178L2315,617z"/>
	<path fill="#4EB350" stroke="#4EB350" d="M2437.4,717.1l-252.7,178l310,128.8L2437.4,717.1z"/>
	<path fill="#5AAE4C" stroke="#5AAE4C" d="M2437.4,717.1l57.2,306.8l208.2-241.6L2437.4,717.1z"/>
	<path fill="#449C46" stroke="#449C46" d="M2702.8,782.3l-208.2,241.6l343.3-120.8L2702.8,782.3z"/>
	<path fill="#65A148" stroke="#65A148" d="M2702.8,782.3l135.1,120.8l151-192.3L2702.8,782.3z"/>
	<path fill="#549442" stroke="#549442" d="M2988.9,710.8l-151,192.3l81.1,55.6L2988.9,710.8z"/>
	<path fill="#16723A" stroke="#16723A" d="M2988.9,710.8l-69.9,248l42.9,546.8L2988.9,710.8z"/>
	<path fill="#6B592D" stroke="#6B592D" d="M-29.6,1019.2l-84.2,101.7l159,50.9L-29.6,1019.2z"/>
	<path fill="#86703B" stroke="#86703B" d="M-29.6,1019.2l74.7,152.6L140.5,892L-29.6,1019.2z"/>
	<path fill="#757C3E" stroke="#757C3E" d="M140.5,892l-95.4,279.8l386.3,39.7L140.5,892z"/>
	<path fill="#989A4D" stroke="#989A4D" d="M140.5,892l290.9,319.5l-14.3-305.2L140.5,892z"/>
	<path fill="#A0B35A" stroke="#A0B35A" d="M417.1,906.3l14.3,305.2l216.2-329L417.1,906.3z"/>
	<path fill="#7EAC55" stroke="#7EAC55" d="M647.6,882.4l-216.2,329l260.7-11.1L647.6,882.4z"/>
	<path fill="#8DBB63" stroke="#8DBB63" d="M647.6,882.4l44.5,317.9l63.6-97L647.6,882.4z"/>
	<path fill="#A6C96F" stroke="#A6C96F" d="M647.6,882.4l108.1,220.9l69.9-127.2L647.6,882.4z"/>
	<path fill="#89C572" stroke="#89C572" d="M825.6,976.2l-69.9,127.2l255.9,23.8L825.6,976.2z"/>
	<path fill="#A1D080" stroke="#A1D080" d="M825.6,976.2l186,151l12.7-214.6L825.6,976.2z"/>
	<path fill="#89C981" stroke="#89C981" d="M1024.3,912.7l-12.7,214.6l260.7,76.3L1024.3,912.7z"/>
	<path fill="#8AC97B" stroke="#8AC97B" d="M1024.3,912.7l248,290.9l125.6-179.6L1024.3,912.7z"/>
	<path fill="#68BF65" stroke="#68BF65" d="M1397.8,1023.9l-125.6,179.6l265.5-28.6L1397.8,1023.9z"/>
	<path fill="#7AC36A" stroke="#7AC36A" d="M1397.8,1023.9l139.9,151l-71.5-251.1L1397.8,1023.9z"/>
	<path fill="#6EBF5F" stroke="#6EBF5F" d="M1466.2,923.8l71.5,251.1l281.3-143.1L1466.2,923.8z"/>
	<path fill="#49AE4B" stroke="#49AE4B" d="M1819,1031.9l-281.3,143.1l281.3,95.4V1031.9z"/>
	<path fill="#31A749" stroke="#31A749" d="M1819,1031.9v238.4l214.6-157.4L1819,1031.9z"/>
	<path fill="#45B751" stroke="#45B751" d="M1819,1031.9l214.6,81.1l-50.9-182.8L1819,1031.9z"/>
	<path fill="#43B651" stroke="#43B651" d="M1982.8,930.1l50.9,182.8l151-217.8L1982.8,930.1z"/>
	<path fill="#1EA64A" stroke="#1EA64A" d="M2184.6,895.2l-151,217.8l241.6,19.1L2184.6,895.2z"/>
	<path fill="#1FA049" stroke="#1FA049" d="M2184.6,895.2l90.6,236.8l219.4-108.1L2184.6,895.2z"/>
	<path fill="#0A8E45" stroke="#0A8E45" d="M2494.6,1023.9L2275.2,1132l265.5-25.4L2494.6,1023.9z"/>
	<path fill="#228E45" stroke="#228E45" d="M2494.6,1023.9l46.1,82.7l297.2-203.5L2494.6,1023.9z"/>
	<path fill="#127C3E" stroke="#127C3E" d="M2837.9,903.1l-297.2,203.5l302,138.3L2837.9,903.1z"/>
	<path fill="#096F39" stroke="#096F39" d="M2837.9,903.1l4.8,341.8l54-46.1L2837.9,903.1z"/>
	<path fill="#207D3E" stroke="#207D3E" d="M2837.9,903.1l58.8,295.7l22.3-240L2837.9,903.1z"/>
	<path fill="#135A2D" stroke="#135A2D" d="M2919,958.7l-22.3,240l65.2,306.8L2919,958.7z"/>
	<path fill="#6A411E" stroke="#6A411E" d="M-113.8,1120.9l1.6,268.6l157.4-217.8L-113.8,1120.9z"/>
	<path fill="#6C3817" stroke="#6C3817" d="M45.1,1171.7l-157.4,217.8l190.7,95.4L45.1,1171.7z"/>
	<path fill="#714B20" stroke="#714B20" d="M45.1,1171.7l33.4,313.1l259.1-97L45.1,1171.7z"/>
	<path fill="#766A30" stroke="#766A30" d="M45.1,1171.7l292.5,216.2l93.8-176.4L45.1,1171.7z"/>
	<path fill="#7C7331" stroke="#7C7331" d="M431.4,1211.5l-93.8,176.4l217.8,62L431.4,1211.5z"/>
	<path fill="#808C41" stroke="#808C41" d="M431.4,1211.5l124,238.4l136.7-249.6L431.4,1211.5z"/>
	<path fill="#808A43" stroke="#808A43" d="M692.1,1200.4l-136.7,249.6l189.2-66.8L692.1,1200.4z"/>
	<path fill="#7FA155" stroke="#7FA155" d="M692.1,1200.4l52.5,182.8l11.1-279.8L692.1,1200.4z"/>
	<path fill="#7FAD61" stroke="#7FAD61" d="M755.6,1103.4l-11.1,279.8l267-255.9L755.6,1103.4z"/>
	<path fill="#7FA05B" stroke="#7FA05B" d="M1011.6,1127.2l-267,255.9l282.9,106.5L1011.6,1127.2z"/>
	<path fill="#7EB46D" stroke="#7EB46D" d="M1011.6,1127.2l15.9,362.4l244.8-286.1L1011.6,1127.2z"/>
	<path fill="#769D58" stroke="#769D58" d="M1272.2,1203.5l-244.8,286.1l317.9,4.8L1272.2,1203.5z"/>
	<path fill="#689A4D" stroke="#689A4D" d="M1272.2,1203.5l73.1,290.9l162.1-73.1L1272.2,1203.5z"/>
	<path fill="#61A953" stroke="#61A953" d="M1272.2,1203.5l235.3,217.8l30.2-246.4L1272.2,1203.5z"/>
	<path fill="#529F45" stroke="#529F45" d="M1537.7,1174.9l-30.2,246.4l311.6-151L1537.7,1174.9z"/>
	<path fill="#4A8B40" stroke="#4A8B40" d="M1819,1270.3l-311.6,151l273.4,52.5L1819,1270.3z"/>
	<path fill="#387F3D" stroke="#387F3D" d="M1819,1270.3l-38.1,203.5l181.2-9.5L1819,1270.3z"/>
	<path fill="#2C8D44" stroke="#2C8D44" d="M1819,1270.3l143.1,193.9l71.5-351.3L1819,1270.3z"/>
	<path fill="#1B7D3E" stroke="#1B7D3E" d="M2033.6,1112.9l-71.5,351.3l338.6-65.2L2033.6,1112.9z"/>
	<path fill="#138843" stroke="#138843" d="M2033.6,1112.9l267,286.1l-25.4-267L2033.6,1112.9z"/>
	<path fill="#096F39" stroke="#096F39" d="M2275.2,1132l25.4,267l166.9,7.9L2275.2,1132z"/>
	<path fill="#0A7A3E" stroke="#0A7A3E" d="M2275.2,1132l192.3,275l73.1-300.4L2275.2,1132z"/>
	<path fill="#0C6232" stroke="#0C6232" d="M2540.7,1106.6l-73.1,300.4l255.9,6.4L2540.7,1106.6z"/>
	<path fill="#0C6333" stroke="#0C6333" d="M2540.7,1106.6l182.8,306.8l119.2-168.5L2540.7,1106.6z"/>
	<path fill="#1B441F" stroke="#1B441F" d="M2842.7,1244.9l-119.2,168.5l238.4,92.2L2842.7,1244.9z"/>
	<path fill="#1B4C24" stroke="#1B4C24" d="M2842.7,1244.9l119.2,260.7l-65.2-306.8L2842.7,1244.9z"/>
	<path fill="#807F4A" stroke="#807F4A" d="M78.5,1484.9l1266.9,9.5l-317.9-4.8L78.5,1484.9z"/>
	<path fill="#806D32" stroke="#806D32" d="M78.5,1484.9l949,4.8l-472.1-39.7L78.5,1484.9z"/>
	<path fill="#775422" stroke="#775422" d="M78.5,1484.9l476.9-35l-217.8-62L78.5,1484.9z"/>
	<path fill="#808445" stroke="#808445" d="M555.4,1449.9l472.1,39.7l-282.9-106.5L555.4,1449.9z"/>
	<path fill="#226633" stroke="#226633" d="M1345.4,1494.4l1616.6,11.1l-1181-31.8L1345.4,1494.4z"/>
	<path fill="#5C863C" stroke="#5C863C" d="M1345.4,1494.4l435.5-20.7l-273.4-52.5L1345.4,1494.4z"/>
	<path fill="#115B2E" stroke="#115B2E" d="M1780.9,1473.8l1181,31.8l-999.8-41.3L1780.9,1473.8z"/>
	<path fill="#175027" stroke="#175027" d="M1962.1,1464.2l999.8,41.3l-494.3-98.6L1962.1,1464.2z"/>
	<path fill="#0F6433" stroke="#0F6433" d="M1962.1,1464.2l505.5-57.2l-166.9-7.9L1962.1,1464.2z"/>
	<path fill="#1A431F" stroke="#1A431F" d="M2467.6,1407l494.3,98.6l-238.4-92.2L2467.6,1407z"/>
</g>
<linearGradient id="SVGID_2_" gradientUnits="userSpaceOnUse" x1="1322.2124" y1="3980.5317" x2="1322.2124" y2="2979.1807" gradientTransform="matrix(1.4215 0 0 -1.4215 -432.042 5652.2383)">
	<stop  offset="0.1116" style="stop-color:#010101;stop-opacity:0"/>
	<stop  offset="1" style="stop-color:#010101"/>
</linearGradient>
<rect x="-1.8" y="-6.1" fill="url(#SVGID_2_)" fill-opacity="0.68" width="2898.5" height="1423.4"/>
</svg>
