<svg width="1489" height="879" xmlns="http://www.w3.org/2000/svg"><g><path d="M-49,-123L-77,68L114,-33Z" fill="#e41392" stroke="#e41392" fill-opacity="1" stroke-opacity="1"/><path d="M-49,-123L114,-33L194,-125Z" fill="#e7208f" stroke="#e7208f" fill-opacity="1" stroke-opacity="1"/><path d="M114,-33L-77,68L26,129Z" fill="#e63ba6" stroke="#e63ba6" fill-opacity="1" stroke-opacity="1"/><path d="M114,-33L26,129L197,135Z" fill="#ea57b4" stroke="#ea57b4" fill-opacity="1" stroke-opacity="1"/><path d="M114,-33L197,135L319,127Z" fill="#ef6bbf" stroke="#ef6bbf" fill-opacity="1" stroke-opacity="1"/><path d="M114,-33L319,127L194,-125Z" fill="#ee46ad" stroke="#ee46ad" fill-opacity="1" stroke-opacity="1"/><path d="M194,-125L319,127L429,-33Z" fill="#f25cb8" stroke="#f25cb8" fill-opacity="1" stroke-opacity="1"/><path d="M194,-125L429,-33L528,-86Z" fill="#f25cae" stroke="#f25cae" fill-opacity="1" stroke-opacity="1"/><path d="M194,-125L528,-86L663,-93Z" fill="#ec60a2" stroke="#ec60a2" fill-opacity="1" stroke-opacity="1"/><path d="M194,-125L663,-93L1248,-120Z" fill="#da6e84" stroke="#da6e84" fill-opacity="1" stroke-opacity="1"/><path d="M429,-33L319,127L549,57Z" fill="#f185c3" stroke="#f185c3" fill-opacity="1" stroke-opacity="1"/><path d="M429,-33L549,57L528,-86Z" fill="#ea6cae" stroke="#ea6cae" fill-opacity="1" stroke-opacity="1"/><path d="M528,-86L549,57L663,-93Z" fill="#e468a1" stroke="#e468a1" fill-opacity="1" stroke-opacity="1"/><path d="M663,-93L549,57L689,61Z" fill="#e17fa4" stroke="#e17fa4" fill-opacity="1" stroke-opacity="1"/><path d="M663,-93L689,61L807,21Z" fill="#da7f99" stroke="#da7f99" fill-opacity="1" stroke-opacity="1"/><path d="M663,-93L807,21L876,-51Z" fill="#d26f89" stroke="#d26f89" fill-opacity="1" stroke-opacity="1"/><path d="M663,-93L876,-51L1105,-94Z" fill="#c36775" stroke="#c36775" fill-opacity="1" stroke-opacity="1"/><path d="M663,-93L1105,-94L1248,-120Z" fill="#b15e60" stroke="#b15e60" fill-opacity="1" stroke-opacity="1"/><path d="M876,-51L807,21L935,-41Z" fill="#c56f81" stroke="#c56f81" fill-opacity="1" stroke-opacity="1"/><path d="M876,-51L935,-41L1105,-94Z" fill="#b7616c" stroke="#b7616c" fill-opacity="1" stroke-opacity="1"/><path d="M935,-41L807,21L879,182Z" fill="#c79091" stroke="#c79091" fill-opacity="1" stroke-opacity="1"/><path d="M935,-41L879,182L1026,48Z" fill="#bc8e89" stroke="#bc8e89" fill-opacity="1" stroke-opacity="1"/><path d="M935,-41L1026,48L1105,-94Z" fill="#b0626c" stroke="#b0626c" fill-opacity="1" stroke-opacity="1"/><path d="M1105,-94L1026,48L1148,83Z" fill="#a66e6c" stroke="#a66e6c" fill-opacity="1" stroke-opacity="1"/><path d="M1105,-94L1148,83L1248,-120Z" fill="#9b5357" stroke="#9b5357" fill-opacity="1" stroke-opacity="1"/><path d="M1248,-120L1148,83L1289,99Z" fill="#93685c" stroke="#93685c" fill-opacity="1" stroke-opacity="1"/><path d="M1248,-120L1289,99L1374,83Z" fill="#886357" stroke="#886357" fill-opacity="1" stroke-opacity="1"/><path d="M1248,-120L1374,83L1434,-108Z" fill="#804649" stroke="#804649" fill-opacity="1" stroke-opacity="1"/><path d="M1434,-108L1374,83L1535,-78Z" fill="#7c424c" stroke="#7c424c" fill-opacity="1" stroke-opacity="1"/><path d="M1535,-78L1374,83L1623,22Z" fill="#7c4f55" stroke="#7c4f55" fill-opacity="1" stroke-opacity="1"/><path d="M-77,68L-96,426L-61,179Z" fill="#e46dbc" stroke="#e46dbc" fill-opacity="1" stroke-opacity="1"/><path d="M-77,68L-61,179L26,129Z" fill="#e54cae" stroke="#e54cae" fill-opacity="1" stroke-opacity="1"/><path d="M26,129L-61,179L112,279Z" fill="#e876c3" stroke="#e876c3" fill-opacity="1" stroke-opacity="1"/><path d="M26,129L112,279L197,135Z" fill="#ec82c9" stroke="#ec82c9" fill-opacity="1" stroke-opacity="1"/><path d="M197,135L112,279L247,232Z" fill="#f09fd8" stroke="#f09fd8" fill-opacity="1" stroke-opacity="1"/><path d="M197,135L247,232L319,127Z" fill="#f298d5" stroke="#f298d5" fill-opacity="1" stroke-opacity="1"/><path d="M319,127L247,232L402,214Z" fill="#f6b1e1" stroke="#f6b1e1" fill-opacity="1" stroke-opacity="1"/><path d="M319,127L402,214L549,57Z" fill="#f3a7d5" stroke="#f3a7d5" fill-opacity="1" stroke-opacity="1"/><path d="M549,57L402,214L491,250Z" fill="#efbbd7" stroke="#efbbd7" fill-opacity="1" stroke-opacity="1"/><path d="M549,57L491,250L650,194Z" fill="#e9bdcd" stroke="#e9bdcd" fill-opacity="1" stroke-opacity="1"/><path d="M549,57L650,194L689,61Z" fill="#e3a7b8" stroke="#e3a7b8" fill-opacity="1" stroke-opacity="1"/><path d="M689,61L650,194L879,182Z" fill="#dbbeb4" stroke="#dbbeb4" fill-opacity="1" stroke-opacity="1"/><path d="M689,61L879,182L807,21Z" fill="#d3a3a2" stroke="#d3a3a2" fill-opacity="1" stroke-opacity="1"/><path d="M1026,48L879,182L1034,260Z" fill="#b9b599" stroke="#b9b599" fill-opacity="1" stroke-opacity="1"/><path d="M1026,48L1034,260L1148,83Z" fill="#aca187" stroke="#aca187" fill-opacity="1" stroke-opacity="1"/><path d="M1148,83L1034,260L1109,273Z" fill="#a9be92" stroke="#a9be92" fill-opacity="1" stroke-opacity="1"/><path d="M1148,83L1109,273L1218,175Z" fill="#a0ae85" stroke="#a0ae85" fill-opacity="1" stroke-opacity="1"/><path d="M1148,83L1218,175L1289,99Z" fill="#969271" stroke="#969271" fill-opacity="1" stroke-opacity="1"/><path d="M1289,99L1218,175L1457,242Z" fill="#88a076" stroke="#88a076" fill-opacity="1" stroke-opacity="1"/><path d="M1289,99L1457,242L1374,83Z" fill="#809070" stroke="#809070" fill-opacity="1" stroke-opacity="1"/><path d="M1374,83L1457,242L1595,211Z" fill="#7f9877" stroke="#7f9877" fill-opacity="1" stroke-opacity="1"/><path d="M1374,83L1595,211L1623,22Z" fill="#7e7669" stroke="#7e7669" fill-opacity="1" stroke-opacity="1"/><path d="M1623,22L1595,211L1591,667Z" fill="#79a76e" stroke="#79a76e" fill-opacity="1" stroke-opacity="1"/><path d="M-61,179L-96,426L98,351Z" fill="#df7fae" stroke="#df7fae" fill-opacity="1" stroke-opacity="1"/><path d="M-61,179L98,351L112,279Z" fill="#e68ac0" stroke="#e68ac0" fill-opacity="1" stroke-opacity="1"/><path d="M112,279L98,351L250,328Z" fill="#e7a3c0" stroke="#e7a3c0" fill-opacity="1" stroke-opacity="1"/><path d="M112,279L250,328L247,232Z" fill="#ecaace" stroke="#ecaace" fill-opacity="1" stroke-opacity="1"/><path d="M247,232L250,328L402,214Z" fill="#f2bcdd" stroke="#f2bcdd" fill-opacity="1" stroke-opacity="1"/><path d="M402,214L250,328L347,413Z" fill="#efc8d3" stroke="#efc8d3" fill-opacity="1" stroke-opacity="1"/><path d="M402,214L347,413L491,250Z" fill="#efd1d9" stroke="#efd1d9" fill-opacity="1" stroke-opacity="1"/><path d="M491,250L347,413L572,336Z" fill="#e7d7c9" stroke="#e7d7c9" fill-opacity="1" stroke-opacity="1"/><path d="M491,250L572,336L650,194Z" fill="#e6d7ce" stroke="#e6d7ce" fill-opacity="1" stroke-opacity="1"/><path d="M650,194L572,336L715,413Z" fill="#dce0b9" stroke="#dce0b9" fill-opacity="1" stroke-opacity="1"/><path d="M650,194L715,413L811,355Z" fill="#d5e5af" stroke="#d5e5af" fill-opacity="1" stroke-opacity="1"/><path d="M650,194L811,355L879,182Z" fill="#d5ddb9" stroke="#d5ddb9" fill-opacity="1" stroke-opacity="1"/><path d="M879,182L811,355L1034,260Z" fill="#c0d6a4" stroke="#c0d6a4" fill-opacity="1" stroke-opacity="1"/><path d="M1034,260L811,355L956,418Z" fill="#b7db8f" stroke="#b7db8f" fill-opacity="1" stroke-opacity="1"/><path d="M1034,260L956,418L1139,420Z" fill="#a5d57d" stroke="#a5d57d" fill-opacity="1" stroke-opacity="1"/><path d="M1034,260L1139,420L1109,273Z" fill="#a2cd81" stroke="#a2cd81" fill-opacity="1" stroke-opacity="1"/><path d="M1109,273L1139,420L1310,414Z" fill="#90cb69" stroke="#90cb69" fill-opacity="1" stroke-opacity="1"/><path d="M1109,273L1310,414L1218,175Z" fill="#93c278" stroke="#93c278" fill-opacity="1" stroke-opacity="1"/><path d="M1218,175L1310,414L1457,242Z" fill="#83b973" stroke="#83b973" fill-opacity="1" stroke-opacity="1"/><path d="M1457,242L1310,414L1403,392Z" fill="#75ba64" stroke="#75ba64" fill-opacity="1" stroke-opacity="1"/><path d="M1457,242L1403,392L1567,370Z" fill="#76b367" stroke="#76b367" fill-opacity="1" stroke-opacity="1"/><path d="M1457,242L1567,370L1595,211Z" fill="#7ba974" stroke="#7ba974" fill-opacity="1" stroke-opacity="1"/><path d="M1595,211L1567,370L1581,466Z" fill="#75ad64" stroke="#75ad64" fill-opacity="1" stroke-opacity="1"/><path d="M1595,211L1581,466L1591,667Z" fill="#6bb34e" stroke="#6bb34e" fill-opacity="1" stroke-opacity="1"/><path d="M-96,426L-110,919L-63,717Z" fill="#8a644b" stroke="#8a644b" fill-opacity="1" stroke-opacity="1"/><path d="M-96,426L-63,717L-29,558Z" fill="#ae726e" stroke="#ae726e" fill-opacity="1" stroke-opacity="1"/><path d="M-96,426L-29,558L71,547Z" fill="#c08281" stroke="#c08281" fill-opacity="1" stroke-opacity="1"/><path d="M-96,426L71,547L98,351Z" fill="#d69398" stroke="#d69398" fill-opacity="1" stroke-opacity="1"/><path d="M98,351L71,547L263,558Z" fill="#cfa799" stroke="#cfa799" fill-opacity="1" stroke-opacity="1"/><path d="M98,351L263,558L250,328Z" fill="#e1b5b1" stroke="#e1b5b1" fill-opacity="1" stroke-opacity="1"/><path d="M250,328L263,558L347,413Z" fill="#e3c9b6" stroke="#e3c9b6" fill-opacity="1" stroke-opacity="1"/><path d="M347,413L263,558L394,503Z" fill="#d6cdac" stroke="#d6cdac" fill-opacity="1" stroke-opacity="1"/><path d="M347,413L394,503L524,512Z" fill="#d8daae" stroke="#d8daae" fill-opacity="1" stroke-opacity="1"/><path d="M347,413L524,512L572,336Z" fill="#dfe0b5" stroke="#dfe0b5" fill-opacity="1" stroke-opacity="1"/><path d="M572,336L524,512L715,413Z" fill="#d6e7a7" stroke="#d6e7a7" fill-opacity="1" stroke-opacity="1"/><path d="M715,413L524,512L620,574Z" fill="#c2e292" stroke="#c2e292" fill-opacity="1" stroke-opacity="1"/><path d="M715,413L620,574L800,584Z" fill="#b4e581" stroke="#b4e581" fill-opacity="1" stroke-opacity="1"/><path d="M715,413L800,584L811,355Z" fill="#c2ed8c" stroke="#c2ed8c" fill-opacity="1" stroke-opacity="1"/><path d="M811,355L800,584L956,418Z" fill="#b6e781" stroke="#b6e781" fill-opacity="1" stroke-opacity="1"/><path d="M956,418L800,584L1007,469Z" fill="#a2de6f" stroke="#a2de6f" fill-opacity="1" stroke-opacity="1"/><path d="M956,418L1007,469L1139,420Z" fill="#a1db6f" stroke="#a1db6f" fill-opacity="1" stroke-opacity="1"/><path d="M1139,420L1007,469L1094,567Z" fill="#8dd35c" stroke="#8dd35c" fill-opacity="1" stroke-opacity="1"/><path d="M1139,420L1094,567L1273,575Z" fill="#75c948" stroke="#75c948" fill-opacity="1" stroke-opacity="1"/><path d="M1139,420L1273,575L1310,414Z" fill="#7ac94b" stroke="#7ac94b" fill-opacity="1" stroke-opacity="1"/><path d="M1310,414L1273,575L1393,466Z" fill="#69c244" stroke="#69c244" fill-opacity="1" stroke-opacity="1"/><path d="M1310,414L1393,466L1403,392Z" fill="#72c254" stroke="#72c254" fill-opacity="1" stroke-opacity="1"/><path d="M1403,392L1393,466L1581,466Z" fill="#6dbd50" stroke="#6dbd50" fill-opacity="1" stroke-opacity="1"/><path d="M1403,392L1581,466L1567,370Z" fill="#70b757" stroke="#70b757" fill-opacity="1" stroke-opacity="1"/><path d="M-29,558L-63,717L30,681Z" fill="#97715c" stroke="#97715c" fill-opacity="1" stroke-opacity="1"/><path d="M-29,558L30,681L71,547Z" fill="#aa816f" stroke="#aa816f" fill-opacity="1" stroke-opacity="1"/><path d="M71,547L30,681L179,699Z" fill="#9f8a6b" stroke="#9f8a6b" fill-opacity="1" stroke-opacity="1"/><path d="M71,547L179,699L263,558Z" fill="#ae9f7d" stroke="#ae9f7d" fill-opacity="1" stroke-opacity="1"/><path d="M263,558L179,699L383,631Z" fill="#abb181" stroke="#abb181" fill-opacity="1" stroke-opacity="1"/><path d="M263,558L383,631L394,503Z" fill="#c1c79a" stroke="#c1c79a" fill-opacity="1" stroke-opacity="1"/><path d="M394,503L383,631L524,512Z" fill="#c2d29a" stroke="#c2d29a" fill-opacity="1" stroke-opacity="1"/><path d="M524,512L383,631L548,714Z" fill="#aacd82" stroke="#aacd82" fill-opacity="1" stroke-opacity="1"/><path d="M524,512L548,714L620,574Z" fill="#a9d37e" stroke="#a9d37e" fill-opacity="1" stroke-opacity="1"/><path d="M620,574L548,714L677,775Z" fill="#8ccd61" stroke="#8ccd61" fill-opacity="1" stroke-opacity="1"/><path d="M620,574L677,775L733,735Z" fill="#85cf58" stroke="#85cf58" fill-opacity="1" stroke-opacity="1"/><path d="M620,574L733,735L800,584Z" fill="#94d964" stroke="#94d964" fill-opacity="1" stroke-opacity="1"/><path d="M800,584L733,735L795,709Z" fill="#81d351" stroke="#81d351" fill-opacity="1" stroke-opacity="1"/><path d="M800,584L795,709L925,675Z" fill="#7ed14e" stroke="#7ed14e" fill-opacity="1" stroke-opacity="1"/><path d="M800,584L925,675L1007,469Z" fill="#8ad55a" stroke="#8ad55a" fill-opacity="1" stroke-opacity="1"/><path d="M1007,469L925,675L1094,567Z" fill="#7ece4f" stroke="#7ece4f" fill-opacity="1" stroke-opacity="1"/><path d="M1094,567L925,675L1154,719Z" fill="#5fc133" stroke="#5fc133" fill-opacity="1" stroke-opacity="1"/><path d="M1094,567L1154,719L1273,575Z" fill="#58bd2c" stroke="#58bd2c" fill-opacity="1" stroke-opacity="1"/><path d="M1273,575L1154,719L1330,718Z" fill="#3eb215" stroke="#3eb215" fill-opacity="1" stroke-opacity="1"/><path d="M1273,575L1330,718L1416,734Z" fill="#30ab12" stroke="#30ab12" fill-opacity="1" stroke-opacity="1"/><path d="M1273,575L1416,734L1393,466Z" fill="#45b328" stroke="#45b328" fill-opacity="1" stroke-opacity="1"/><path d="M1393,466L1416,734L1591,667Z" fill="#39a820" stroke="#39a820" fill-opacity="1" stroke-opacity="1"/><path d="M1393,466L1591,667L1581,466Z" fill="#53ae38" stroke="#53ae38" fill-opacity="1" stroke-opacity="1"/><path d="M-63,717L-110,919L-19,868Z" fill="#65543f" stroke="#65543f" fill-opacity="1" stroke-opacity="1"/><path d="M-63,717L-19,868L97,790Z" fill="#706746" stroke="#706746" fill-opacity="1" stroke-opacity="1"/><path d="M-63,717L97,790L30,681Z" fill="#83714c" stroke="#83714c" fill-opacity="1" stroke-opacity="1"/><path d="M30,681L97,790L179,699Z" fill="#888256" stroke="#888256" fill-opacity="1" stroke-opacity="1"/><path d="M179,699L97,790L238,868Z" fill="#798a58" stroke="#798a58" fill-opacity="1" stroke-opacity="1"/><path d="M179,699L238,868L320,822Z" fill="#7a9860" stroke="#7a9860" fill-opacity="1" stroke-opacity="1"/><path d="M179,699L320,822L383,631Z" fill="#92ab6c" stroke="#92ab6c" fill-opacity="1" stroke-opacity="1"/><path d="M383,631L320,822L494,853Z" fill="#85b76a" stroke="#85b76a" fill-opacity="1" stroke-opacity="1"/><path d="M383,631L494,853L548,714Z" fill="#8abf65" stroke="#8abf65" fill-opacity="1" stroke-opacity="1"/><path d="M548,714L494,853L677,775Z" fill="#74bf57" stroke="#74bf57" fill-opacity="1" stroke-opacity="1"/><path d="M733,735L677,775L833,838Z" fill="#66c943" stroke="#66c943" fill-opacity="1" stroke-opacity="1"/><path d="M733,735L833,838L795,709Z" fill="#67c93e" stroke="#67c93e" fill-opacity="1" stroke-opacity="1"/><path d="M795,709L833,838L925,675Z" fill="#63c637" stroke="#63c637" fill-opacity="1" stroke-opacity="1"/><path d="M925,675L833,838L1018,796Z" fill="#50be2c" stroke="#50be2c" fill-opacity="1" stroke-opacity="1"/><path d="M925,675L1018,796L1154,719Z" fill="#4cbb22" stroke="#4cbb22" fill-opacity="1" stroke-opacity="1"/><path d="M1154,719L1018,796L1124,855Z" fill="#31af16" stroke="#31af16" fill-opacity="1" stroke-opacity="1"/><path d="M1154,719L1124,855L1240,806Z" fill="#26a90c" stroke="#26a90c" fill-opacity="1" stroke-opacity="1"/><path d="M1154,719L1240,806L1330,718Z" fill="#29aa03" stroke="#29aa03" fill-opacity="1" stroke-opacity="1"/><path d="M1330,718L1240,806L1397,852Z" fill="#119f00" stroke="#119f00" fill-opacity="1" stroke-opacity="1"/><path d="M1330,718L1397,852L1416,734Z" fill="#0f9d00" stroke="#0f9d00" fill-opacity="1" stroke-opacity="1"/><path d="M1416,734L1397,852L1555,820Z" fill="#059500" stroke="#059500" fill-opacity="1" stroke-opacity="1"/><path d="M1416,734L1555,820L1591,667Z" fill="#179702" stroke="#179702" fill-opacity="1" stroke-opacity="1"/><path d="M1591,667L1555,820L1554,934Z" fill="#048c00" stroke="#048c00" fill-opacity="1" stroke-opacity="1"/><path d="M-19,868L-110,919L101,955Z" fill="#685645" stroke="#685645" fill-opacity="1" stroke-opacity="1"/><path d="M-19,868L101,955L97,790Z" fill="#6b694c" stroke="#6b694c" fill-opacity="1" stroke-opacity="1"/><path d="M97,790L101,955L238,868Z" fill="#6f7b55" stroke="#6f7b55" fill-opacity="1" stroke-opacity="1"/><path d="M238,868L101,955L245,994Z" fill="#717d5a" stroke="#717d5a" fill-opacity="1" stroke-opacity="1"/><path d="M238,868L245,994L320,822Z" fill="#749162" stroke="#749162" fill-opacity="1" stroke-opacity="1"/><path d="M320,822L245,994L405,1033Z" fill="#779768" stroke="#779768" fill-opacity="1" stroke-opacity="1"/><path d="M320,822L405,1033L494,853Z" fill="#76a869" stroke="#76a869" fill-opacity="1" stroke-opacity="1"/><path d="M494,853L405,1033L478,1012Z" fill="#72a463" stroke="#72a463" fill-opacity="1" stroke-opacity="1"/><path d="M494,853L478,1012L727,938Z" fill="#6aad57" stroke="#6aad57" fill-opacity="1" stroke-opacity="1"/><path d="M494,853L727,938L677,775Z" fill="#65ba50" stroke="#65ba50" fill-opacity="1" stroke-opacity="1"/><path d="M677,775L727,938L833,838Z" fill="#5cc243" stroke="#5cc243" fill-opacity="1" stroke-opacity="1"/><path d="M833,838L727,938L797,1015Z" fill="#56b53e" stroke="#56b53e" fill-opacity="1" stroke-opacity="1"/><path d="M833,838L797,1015L1009,1033Z" fill="#49ab32" stroke="#49ab32" fill-opacity="1" stroke-opacity="1"/><path d="M833,838L1009,1033L1018,796Z" fill="#3eae28" stroke="#3eae28" fill-opacity="1" stroke-opacity="1"/><path d="M1018,796L1009,1033L1089,1003Z" fill="#32a21d" stroke="#32a21d" fill-opacity="1" stroke-opacity="1"/><path d="M1018,796L1089,1003L1124,855Z" fill="#2ca618" stroke="#2ca618" fill-opacity="1" stroke-opacity="1"/><path d="M1124,855L1089,1003L1242,917Z" fill="#229c0f" stroke="#229c0f" fill-opacity="1" stroke-opacity="1"/><path d="M1124,855L1242,917L1240,806Z" fill="#1aa008" stroke="#1aa008" fill-opacity="1" stroke-opacity="1"/><path d="M1240,806L1242,917L1397,852Z" fill="#0d9a00" stroke="#0d9a00" fill-opacity="1" stroke-opacity="1"/><path d="M1397,852L1242,917L1395,1010Z" fill="#068e00" stroke="#068e00" fill-opacity="1" stroke-opacity="1"/><path d="M1397,852L1395,1010L1554,934Z" fill="#008600" stroke="#008600" fill-opacity="1" stroke-opacity="1"/><path d="M1397,852L1554,934L1555,820Z" fill="#008900" stroke="#008900" fill-opacity="1" stroke-opacity="1"/><path d="M-110,919L405,1033L245,994Z" fill="#707559" stroke="#707559" fill-opacity="1" stroke-opacity="1"/><path d="M-110,919L245,994L101,955Z" fill="#6c634e" stroke="#6c634e" fill-opacity="1" stroke-opacity="1"/><path d="M405,1033L1009,1033L797,1015Z" fill="#5dad44" stroke="#5dad44" fill-opacity="1" stroke-opacity="1"/><path d="M405,1033L797,1015L478,1012Z" fill="#6aa458" stroke="#6aa458" fill-opacity="1" stroke-opacity="1"/><path d="M478,1012L797,1015L727,938Z" fill="#62ad4c" stroke="#62ad4c" fill-opacity="1" stroke-opacity="1"/><path d="M1009,1033L1395,1010L1089,1003Z" fill="#20910d" stroke="#20910d" fill-opacity="1" stroke-opacity="1"/><path d="M1089,1003L1395,1010L1242,917Z" fill="#159003" stroke="#159003" fill-opacity="1" stroke-opacity="1"/></g></svg>