<?xml version="1.0" encoding="utf-8"?>
<!-- Generator: Adobe Illustrator 18.1.0, SVG Export Plug-In . SVG Version: 6.00 Build 0)  -->
<svg version="1.1" id="Layer_1" xmlns="http://www.w3.org/2000/svg" xmlns:xlink="http://www.w3.org/1999/xlink" x="0px" y="0px"
	 viewBox="783 -305 1695 741" enable-background="new 783 -305 1695 741" xml:space="preserve">
<g>
	<path fill="#E4452B" stroke="#E4452B" d="M655-389l-3,362l22-207L655-389z"/>
	<path fill="#E80B16" stroke="#E80B16" d="M655-389l19,155l150-91L655-389z"/>
	<path fill="#EE1815" stroke="#EE1815" d="M655-389l169,64l195-46L655-389z"/>
	<path fill="#F63923" stroke="#F63923" d="M655-389l364,18l257-52L655-389z"/>
	<path fill="#EB3B2D" stroke="#EB3B2D" d="M824-325l-150,91l180,29L824-325z"/>
	<path fill="#F25338" stroke="#F25338" d="M824-325l30,120l174-44L824-325z"/>
	<path fill="#F53E2F" stroke="#F53E2F" d="M824-325l204,76l-9-122L824-325z"/>
	<path fill="#FB6741" stroke="#FB6741" d="M1019-371l9,122l125,5L1019-371z"/>
	<path fill="#FE6440" stroke="#FE6440" d="M1019-371l134,127l55-83L1019-371z"/>
	<path fill="#FE5D37" stroke="#FE5D37" d="M1019-371l189,44l68-96L1019-371z"/>
	<path fill="#FF955F" stroke="#FF955F" d="M1208-327l-55,83l157,68L1208-327z"/>
	<path fill="#FFA16C" stroke="#FFA16C" d="M1208-327l102,151l122-68L1208-327z"/>
	<path fill="#FF7A5D" stroke="#FF7A5D" d="M1208-327l224,83l-24-151L1208-327z"/>
	<path fill="#FF6C49" stroke="#FF6C49" d="M1208-327l200-68l-132-28L1208-327z"/>
	<path fill="#FF7B5B" stroke="#FF7B5B" d="M1276-423l132,28l184-34L1276-423z"/>
	<path fill="#FD7F61" stroke="#FD7F61" d="M1408-395l24,151l160-185L1408-395z"/>
	<path fill="#F38E66" stroke="#F38E66" d="M1592-429l-160,185l211,12L1592-429z"/>
	<path fill="#E78358" stroke="#E78358" d="M1592-429l51,197l58-42L1592-429z"/>
	<path fill="#E07347" stroke="#E07347" d="M1592-429l109,155l93-79L1592-429z"/>
	<path fill="#D86F3B" stroke="#D86F3B" d="M1592-429l202,76l89-16L1592-429z"/>
	<path fill="#C16430" stroke="#C16430" d="M1592-429l291,60l293-61L1592-429z"/>
	<path fill="#DAA35D" stroke="#DAA35D" d="M1794-353l-93,79l45,160L1794-353z"/>
	<path fill="#CC9C54" stroke="#CC9C54" d="M1794-353l-48,239l206-165L1794-353z"/>
	<path fill="#C3663B" stroke="#C3663B" d="M1794-353l158,74l-69-90L1794-353z"/>
	<path fill="#B05F36" stroke="#B05F36" d="M1883-369l69,90l121-63L1883-369z"/>
	<path fill="#A05526" stroke="#A05526" d="M1883-369l190,27l103-88L1883-369z"/>
	<path fill="#A66D3C" stroke="#A66D3C" d="M2073-342l-121,63l74,9L2073-342z"/>
	<path fill="#946737" stroke="#946737" d="M2073-342l-47,72l189,3L2073-342z"/>
	<path fill="#8A4A26" stroke="#8A4A26" d="M2073-342l142,75l-39-163L2073-342z"/>
	<path fill="#80401C" stroke="#80401C" d="M2176-430l39,163l153-121L2176-430z"/>
	<path fill="#803413" stroke="#803413" d="M2176-430l192,42l200,1L2176-430z"/>
	<path fill="#80522B" stroke="#80522B" d="M2368-388l-153,121l107,36L2368-388z"/>
	<path fill="#804E28" stroke="#804E28" d="M2368-388l-46,157l153-16L2368-388z"/>
	<path fill="#802B15" stroke="#802B15" d="M2368-388l107,141l93-140L2368-388z"/>
	<path fill="#802311" stroke="#802311" d="M2568-387l-93,140l151-123L2568-387z"/>
	<path fill="#803A1B" stroke="#803A1B" d="M2626-370l-151,123l220,7L2626-370z"/>
	<path fill="#E77157" stroke="#E77157" d="M674-234L652-27l155-6L674-234z"/>
	<path fill="#EB7347" stroke="#EB7347" d="M674-234L807-33l47-172L674-234z"/>
	<path fill="#F1946B" stroke="#F1946B" d="M854-205L807-33l167,4L854-205z"/>
	<path fill="#F59758" stroke="#F59758" d="M854-205L974-29l54-220L854-205z"/>
	<path fill="#FAB574" stroke="#FAB574" d="M1028-249L974-29l155-25L1028-249z"/>
	<path fill="#FDAC61" stroke="#FDAC61" d="M1028-249l101,195l24-190L1028-249z"/>
	<path fill="#FEC774" stroke="#FEC774" d="M1153-244l-24,190l181-122L1153-244z"/>
	<path fill="#FFDB98" stroke="#FFDB98" d="M1310-176L1129-54l237,15L1310-176z"/>
	<path fill="#FFE6A4" stroke="#FFE6A4" d="M1310-176l56,137l48-25L1310-176z"/>
	<path fill="#FFDC8E" stroke="#FFDC8E" d="M1310-176l104,112l18-180L1310-176z"/>
	<path fill="#FBD88E" stroke="#FBD88E" d="M1432-244l-18,180l229-168L1432-244z"/>
	<path fill="#F0E696" stroke="#F0E696" d="M1643-232L1414-64l250-22L1643-232z"/>
	<path fill="#E2DD82" stroke="#E2DD82" d="M1643-232l21,146l82-28L1643-232z"/>
	<path fill="#E0BD6E" stroke="#E0BD6E" d="M1643-232l103,118l-45-160L1643-232z"/>
	<path fill="#C3CE6D" stroke="#C3CE6D" d="M1952-279l-206,165l184,61L1952-279z"/>
	<path fill="#B0AA59" stroke="#B0AA59" d="M1952-279l-22,226l96-217L1952-279z"/>
	<path fill="#A6C46F" stroke="#A6C46F" d="M2026-270l-96,217l160,11L2026-270z"/>
	<path fill="#93A152" stroke="#93A152" d="M2026-270l64,228l125-225L2026-270z"/>
	<path fill="#83B669" stroke="#83B669" d="M2215-267L2090-42l157,16L2215-267z"/>
	<path fill="#809C4E" stroke="#809C4E" d="M2215-267l32,241l75-205L2215-267z"/>
	<path fill="#80AD66" stroke="#80AD66" d="M2322-231l-75,205l62-21L2322-231z"/>
	<path fill="#809247" stroke="#809247" d="M2322-231l-13,184l166-200L2322-231z"/>
	<path fill="#80974F" stroke="#80974F" d="M2475-247L2309-47l245-73L2475-247z"/>
	<path fill="#806D33" stroke="#806D33" d="M2475-247l79,127l141-120L2475-247z"/>
	<path fill="#808748" stroke="#808748" d="M2695-240l-141,120l76,96L2695-240z"/>
	<path fill="#808E5F" stroke="#808E5F" d="M2695-240l-65,216l30,100L2695-240z"/>
	<path fill="#649741" stroke="#649741" d="M2695-240l-35,316l-17,500L2695-240z"/>
	<path fill="#825E2E" stroke="#825E2E" d="M652-27l57,530l-1-169L652-27z"/>
	<path fill="#C98043" stroke="#C98043" d="M652-27l56,361l-19-223L652-27z"/>
	<path fill="#E0806B" stroke="#E0806B" d="M652-27l37,138l119-98L652-27z"/>
	<path fill="#EA857B" stroke="#EA857B" d="M652-27l156,40l-1-46L652-27z"/>
	<path fill="#F09C85" stroke="#F09C85" d="M807-33l1,46l166-42L807-33z"/>
	<path fill="#F1AD8A" stroke="#F1AD8A" d="M974-29L808,13l207,21L974-29z"/>
	<path fill="#FAC397" stroke="#FAC397" d="M974-29l41,63l114-88L974-29z"/>
	<path fill="#F5CE91" stroke="#F5CE91" d="M1129-54l-114,88l88,79L1129-54z"/>
	<path fill="#F5DB98" stroke="#F5DB98" d="M1129-54l-26,167l149-55L1129-54z"/>
	<path fill="#FFE5B3" stroke="#FFE5B3" d="M1129-54l123,112l114-97L1129-54z"/>
	<path fill="#F9F4BB" stroke="#F9F4BB" d="M1366-39l-114,97l242-12L1366-39z"/>
	<path fill="#FFF9C9" stroke="#FFF9C9" d="M1366-39l128,85l-80-110L1366-39z"/>
	<path fill="#F7F8C0" stroke="#F7F8C0" d="M1414-64l80,110l170-132L1414-64z"/>
	<path fill="#ECF8BD" stroke="#ECF8BD" d="M1664-86L1494,46l103,11L1664-86z"/>
	<path fill="#DFF2B1" stroke="#DFF2B1" d="M1664-86l-67,143l215-23L1664-86z"/>
	<path fill="#DBE89D" stroke="#DBE89D" d="M1664-86l148,120l-66-148L1664-86z"/>
	<path fill="#CDE398" stroke="#CDE398" d="M1746-114l66,148l118-87L1746-114z"/>
	<path fill="#B8E396" stroke="#B8E396" d="M1930-53l-118,87l138,58L1930-53z"/>
	<path fill="#AAD999" stroke="#AAD999" d="M1930-53l20,145l140-134L1930-53z"/>
	<path fill="#97D683" stroke="#97D683" d="M2090-42L1950,92l97,26L2090-42z"/>
	<path fill="#88CC86" stroke="#88CC86" d="M2090-42l-43,160l189-101L2090-42z"/>
	<path fill="#82C48D" stroke="#82C48D" d="M2090-42l146,59l11-43L2090-42z"/>
	<path fill="#80BD87" stroke="#80BD87" d="M2247-26l-11,43l73-64L2247-26z"/>
	<path fill="#7BBC81" stroke="#7BBC81" d="M2309-47l-73,64l77,63L2309-47z"/>
	<path fill="#74B470" stroke="#74B470" d="M2309-47l4,127l167,41L2309-47z"/>
	<path fill="#80AB7E" stroke="#80AB7E" d="M2309-47l171,168l74-241L2309-47z"/>
	<path fill="#80A279" stroke="#80A279" d="M2554-120l-74,241l150-145L2554-120z"/>
	<path fill="#739E60" stroke="#739E60" d="M2630-24l-150,145l180-45L2630-24z"/>
	<path fill="#956636" stroke="#956636" d="M689,111l19,223l53-64L689,111z"/>
	<path fill="#B27D44" stroke="#B27D44" d="M689,111l72,159l107-80L689,111z"/>
	<path fill="#D68D5A" stroke="#D68D5A" d="M689,111l179,79L808,13L689,111z"/>
	<path fill="#E1A56E" stroke="#E1A56E" d="M808,13l60,177l147-156L808,13z"/>
	<path fill="#D9B661" stroke="#D9B661" d="M1015,34L868,190l174,9L1015,34z"/>
	<path fill="#E2C871" stroke="#E2C871" d="M1015,34l27,165l61-86L1015,34z"/>
	<path fill="#D3CE6A" stroke="#D3CE6A" d="M1103,113l-61,86l145-15L1103,113z"/>
	<path fill="#E6DE7F" stroke="#E6DE7F" d="M1103,113l84,71l65-126L1103,113z"/>
	<path fill="#D6E07D" stroke="#D6E07D" d="M1252,58l-65,126l112,59L1252,58z"/>
	<path fill="#D3E887" stroke="#D3E887" d="M1252,58l47,185l125-40L1252,58z"/>
	<path fill="#EAF7A2" stroke="#EAF7A2" d="M1252,58l172,145l70-157L1252,58z"/>
	<path fill="#E4FDA6" stroke="#E4FDA6" d="M1494,46l-70,157l173-146L1494,46z"/>
	<path fill="#C1F08C" stroke="#C1F08C" d="M1597,57l-173,146l235,70L1597,57z"/>
	<path fill="#B4EA80" stroke="#B4EA80" d="M1597,57l62,216l43-63L1597,57z"/>
	<path fill="#CAF28E" stroke="#CAF28E" d="M1597,57l105,153l110-176L1597,57z"/>
	<path fill="#A1E26E" stroke="#A1E26E" d="M1812,34l-110,176l222,68L1812,34z"/>
	<path fill="#A4E370" stroke="#A4E370" d="M1812,34l112,244l26-186L1812,34z"/>
	<path fill="#75CE61" stroke="#75CE61" d="M1950,92l-26,186l103-64L1950,92z"/>
	<path fill="#8AD767" stroke="#8AD767" d="M1950,92l77,122l20-96L1950,92z"/>
	<path fill="#6AC85E" stroke="#6AC85E" d="M2047,118l-20,96l127-22L2047,118z"/>
	<path fill="#75CA6A" stroke="#75CA6A" d="M2047,118l107,74l82-175L2047,118z"/>
	<path fill="#6CC169" stroke="#6CC169" d="M2236,17l-82,175l159-112L2236,17z"/>
	<path fill="#4CB351" stroke="#4CB351" d="M2313,80l-159,112l195,81L2313,80z"/>
	<path fill="#59AE4E" stroke="#59AE4E" d="M2313,80l36,193l131-152L2313,80z"/>
	<path fill="#449C43" stroke="#449C43" d="M2480,121l-131,152l216-76L2480,121z"/>
	<path fill="#65A049" stroke="#65A049" d="M2480,121l85,76l95-121L2480,121z"/>
	<path fill="#53943E" stroke="#53943E" d="M2660,76l-95,121l51,35L2660,76z"/>
	<path fill="#0E7128" stroke="#0E7128" d="M2660,76l-44,156l27,344L2660,76z"/>
	<path fill="#6A582C" stroke="#6A582C" d="M761,270l-53,64l100,32L761,270z"/>
	<path fill="#86703A" stroke="#86703A" d="M761,270l47,96l60-176L761,270z"/>
	<path fill="#757B3D" stroke="#757B3D" d="M868,190l-60,176l243,25L868,190z"/>
	<path fill="#989A4E" stroke="#989A4E" d="M868,190l183,201l-9-192L868,190z"/>
	<path fill="#9FB259" stroke="#9FB259" d="M1042,199l9,192l136-207L1042,199z"/>
	<path fill="#7FAC56" stroke="#7FAC56" d="M1187,184l-136,207l164-7L1187,184z"/>
	<path fill="#8CBA63" stroke="#8CBA63" d="M1187,184l28,200l40-61L1187,184z"/>
	<path fill="#A6C96F" stroke="#A6C96F" d="M1187,184l68,139l44-80L1187,184z"/>
	<path fill="#89C571" stroke="#89C571" d="M1299,243l-44,80l161,15L1299,243z"/>
	<path fill="#A0D77F" stroke="#A0D77F" d="M1299,243l117,95l8-135L1299,243z"/>
	<path fill="#84D381" stroke="#84D381" d="M1424,203l-8,135l164,48L1424,203z"/>
	<path fill="#85D47B" stroke="#85D47B" d="M1424,203l156,183l79-113L1424,203z"/>
	<path fill="#65C064" stroke="#65C064" d="M1659,273l-79,113l167-18L1659,273z"/>
	<path fill="#74CD68" stroke="#74CD68" d="M1659,273l88,95l-45-158L1659,273z"/>
	<path fill="#67C75D" stroke="#67C75D" d="M1702,210l45,158l177-90L1702,210z"/>
	<path fill="#46AE4C" stroke="#46AE4C" d="M1924,278l-177,90l177,60V278z"/>
	<path fill="#30A748" stroke="#30A748" d="M1924,278v150l135-99L1924,278z"/>
	<path fill="#43B652" stroke="#43B652" d="M1924,278l135,51l-32-115L1924,278z"/>
	<path fill="#42B652" stroke="#42B652" d="M2027,214l32,115l95-137L2027,214z"/>
	<path fill="#1FA547" stroke="#1FA547" d="M2154,192l-95,137l152,12L2154,192z"/>
	<path fill="#1CA044" stroke="#1CA044" d="M2154,192l57,149l138-68L2154,192z"/>
	<path fill="#048D39" stroke="#048D39" d="M2349,273l-138,68l167-16L2349,273z"/>
	<path fill="#1E8E3A" stroke="#1E8E3A" d="M2349,273l29,52l187-128L2349,273z"/>
	<path fill="#057B2D" stroke="#057B2D" d="M2565,197l-187,128l190,87L2565,197z"/>
	<path fill="#006E26" stroke="#006E26" d="M2565,197l3,215l34-29L2565,197z"/>
	<path fill="#1B7C2F" stroke="#1B7C2F" d="M2565,197l37,186l14-151L2565,197z"/>
	<path fill="#005918" stroke="#005918" d="M2616,232l-14,151l41,193L2616,232z"/>
	<path fill="#69401E" stroke="#69401E" d="M708,334l1,169l99-137L708,334z"/>
	<path fill="#6C3615" stroke="#6C3615" d="M808,366l-99,137l120,60L808,366z"/>
	<path fill="#714A1F" stroke="#714A1F" d="M808,366l21,197l163-61L808,366z"/>
	<path fill="#756930" stroke="#756930" d="M808,366l184,136l59-111L808,366z"/>
	<path fill="#7B7231" stroke="#7B7231" d="M1051,391l-59,111l137,39L1051,391z"/>
	<path fill="#7F8B40" stroke="#7F8B40" d="M1051,391l78,150l86-157L1051,391z"/>
	<path fill="#7F8A43" stroke="#7F8A43" d="M1215,384l-86,157l119-42L1215,384z"/>
	<path fill="#7FA155" stroke="#7FA155" d="M1215,384l33,115l7-176L1215,384z"/>
	<path fill="#7FAD60" stroke="#7FAD60" d="M1255,323l-7,176l168-161L1255,323z"/>
	<path fill="#7FA05B" stroke="#7FA05B" d="M1416,338l-168,161l178,67L1416,338z"/>
	<path fill="#7EB46D" stroke="#7EB46D" d="M1416,338l10,228l154-180L1416,338z"/>
	<path fill="#759D58" stroke="#759D58" d="M1580,386l-154,180l200,3L1580,386z"/>
	<path fill="#689A4D" stroke="#689A4D" d="M1580,386l46,183l102-46L1580,386z"/>
	<path fill="#62A953" stroke="#62A953" d="M1580,386l148,137l19-155L1580,386z"/>
	<path fill="#539F43" stroke="#539F43" d="M1747,368l-19,155l196-95L1747,368z"/>
	<path fill="#498A35" stroke="#498A35" d="M1924,428l-196,95l172,33L1924,428z"/>
	<path fill="#357E2E" stroke="#357E2E" d="M1924,428l-24,128l114-6L1924,428z"/>
	<path fill="#2A8D37" stroke="#2A8D37" d="M1924,428l90,122l45-221L1924,428z"/>
	<path fill="#157C2D" stroke="#157C2D" d="M2059,329l-45,221l213-41L2059,329z"/>
	<path fill="#088734" stroke="#088734" d="M2059,329l168,180l-16-168L2059,329z"/>
	<path fill="#006E25" stroke="#006E25" d="M2211,341l16,168l105,5L2211,341z"/>
	<path fill="#00792C" stroke="#00792C" d="M2211,341l121,173l46-189L2211,341z"/>
	<path fill="#00611C" stroke="#00611C" d="M2378,325l-46,189l161,4L2378,325z"/>
	<path fill="#00621D" stroke="#00621D" d="M2378,325l115,193l75-106L2378,325z"/>
	<path fill="#00430A" stroke="#00430A" d="M2568,412l-75,106l150,58L2568,412z"/>
	<path fill="#004B0F" stroke="#004B0F" d="M2568,412l75,164l-41-193L2568,412z"/>
	<path fill="#7F7E49" stroke="#7F7E49" d="M829,563l797,6l-200-3L829,563z"/>
	<path fill="#7F6C32" stroke="#7F6C32" d="M829,563l597,3l-297-25L829,563z"/>
	<path fill="#775323" stroke="#775323" d="M829,563l300-22l-137-39L829,563z"/>
	<path fill="#7F8345" stroke="#7F8345" d="M1129,541l297,25l-178-67L1129,541z"/>
	<path fill="#1E6526" stroke="#1E6526" d="M1626,569l1017,7l-743-20L1626,569z"/>
	<path fill="#5A863B" stroke="#5A863B" d="M1626,569l274-13l-172-33L1626,569z"/>
	<path fill="#045A1E" stroke="#045A1E" d="M1900,556l743,20l-629-26L1900,556z"/>
	<path fill="#004F15" stroke="#004F15" d="M2014,550l629,26l-311-62L2014,550z"/>
	<path fill="#03631E" stroke="#03631E" d="M2014,550l318-36l-105-5L2014,550z"/>
	<path fill="#00430C" stroke="#00430C" d="M2332,514l311,62l-150-58L2332,514z"/>
</g>
<linearGradient id="SVGID_1_" gradientUnits="userSpaceOnUse" x1="1675" y1="-429" x2="1675" y2="576">
	<stop  offset="0" style="stop-color:#000000;stop-opacity:0"/>
	<stop  offset="1" style="stop-color:#000000"/>
</linearGradient>
<rect x="655" y="-429" fill="url(#SVGID_1_)" stroke="#000000" stroke-miterlimit="10" width="2040" height="1005"/>
</svg>
