<svg width="1695" height="741" xmlns="http://www.w3.org/2000/svg"><g><path d="M-128,-84L-131,278L-109,71Z" fill="#e4452b" stroke="#e4452b"/><path d="M-128,-84L-109,71L41,-20Z" fill="#e80b16" stroke="#e80b16"/><path d="M-128,-84L41,-20L236,-66Z" fill="#ee1815" stroke="#ee1815"/><path d="M-128,-84L236,-66L493,-118Z" fill="#f63923" stroke="#f63923"/><path d="M41,-20L-109,71L71,100Z" fill="#eb3b2d" stroke="#eb3b2d"/><path d="M41,-20L71,100L245,56Z" fill="#f25338" stroke="#f25338"/><path d="M41,-20L245,56L236,-66Z" fill="#f53e2f" stroke="#f53e2f"/><path d="M236,-66L245,56L370,61Z" fill="#fb6741" stroke="#fb6741"/><path d="M236,-66L370,61L425,-22Z" fill="#fe6440" stroke="#fe6440"/><path d="M236,-66L425,-22L493,-118Z" fill="#fe5d37" stroke="#fe5d37"/><path d="M425,-22L370,61L527,129Z" fill="#ff955f" stroke="#ff955f"/><path d="M425,-22L527,129L649,61Z" fill="#ffa16c" stroke="#ffa16c"/><path d="M425,-22L649,61L625,-90Z" fill="#ff7a5d" stroke="#ff7a5d"/><path d="M425,-22L625,-90L493,-118Z" fill="#ff6c49" stroke="#ff6c49"/><path d="M493,-118L625,-90L809,-124Z" fill="#ff7b5b" stroke="#ff7b5b"/><path d="M625,-90L649,61L809,-124Z" fill="#fd7f61" stroke="#fd7f61"/><path d="M809,-124L649,61L860,73Z" fill="#f38e66" stroke="#f38e66"/><path d="M809,-124L860,73L918,31Z" fill="#e78358" stroke="#e78358"/><path d="M809,-124L918,31L1011,-48Z" fill="#e07347" stroke="#e07347"/><path d="M809,-124L1011,-48L1100,-64Z" fill="#d86f3b" stroke="#d86f3b"/><path d="M809,-124L1100,-64L1393,-125Z" fill="#c16430" stroke="#c16430"/><path d="M1011,-48L918,31L963,191Z" fill="#daa35d" stroke="#daa35d"/><path d="M1011,-48L963,191L1169,26Z" fill="#cc9c54" stroke="#cc9c54"/><path d="M1011,-48L1169,26L1100,-64Z" fill="#c3663b" stroke="#c3663b"/><path d="M1100,-64L1169,26L1290,-37Z" fill="#b05f36" stroke="#b05f36"/><path d="M1100,-64L1290,-37L1393,-125Z" fill="#a05526" stroke="#a05526"/><path d="M1290,-37L1169,26L1243,35Z" fill="#a66d3c" stroke="#a66d3c"/><path d="M1290,-37L1243,35L1432,38Z" fill="#946737" stroke="#946737"/><path d="M1290,-37L1432,38L1393,-125Z" fill="#8a4a26" stroke="#8a4a26"/><path d="M1393,-125L1432,38L1585,-83Z" fill="#80401c" stroke="#80401c"/><path d="M1393,-125L1585,-83L1785,-82Z" fill="#803413" stroke="#803413"/><path d="M1585,-83L1432,38L1539,74Z" fill="#80522b" stroke="#80522b"/><path d="M1585,-83L1539,74L1692,58Z" fill="#804e28" stroke="#804e28"/><path d="M1585,-83L1692,58L1785,-82Z" fill="#802b15" stroke="#802b15"/><path d="M1785,-82L1692,58L1843,-65Z" fill="#802311" stroke="#802311"/><path d="M1843,-65L1692,58L1912,65Z" fill="#803a1b" stroke="#803a1b"/><path d="M-109,71L-131,278L24,272Z" fill="#e77157" stroke="#e77157"/><path d="M-109,71L24,272L71,100Z" fill="#eb7347" stroke="#eb7347"/><path d="M71,100L24,272L191,276Z" fill="#f1946b" stroke="#f1946b"/><path d="M71,100L191,276L245,56Z" fill="#f59758" stroke="#f59758"/><path d="M245,56L191,276L346,251Z" fill="#fab574" stroke="#fab574"/><path d="M245,56L346,251L370,61Z" fill="#fdac61" stroke="#fdac61"/><path d="M370,61L346,251L527,129Z" fill="#fec774" stroke="#fec774"/><path d="M527,129L346,251L583,266Z" fill="#ffdb98" stroke="#ffdb98"/><path d="M527,129L583,266L631,241Z" fill="#ffe6a4" stroke="#ffe6a4"/><path d="M527,129L631,241L649,61Z" fill="#ffdc8e" stroke="#ffdc8e"/><path d="M649,61L631,241L860,73Z" fill="#fbd88e" stroke="#fbd88e"/><path d="M860,73L631,241L881,219Z" fill="#f0e696" stroke="#f0e696"/><path d="M860,73L881,219L963,191Z" fill="#e2dd82" stroke="#e2dd82"/><path d="M860,73L963,191L918,31Z" fill="#e0bd6e" stroke="#e0bd6e"/><path d="M1169,26L963,191L1147,252Z" fill="#c3ce6d" stroke="#c3ce6d"/><path d="M1169,26L1147,252L1243,35Z" fill="#b0aa59" stroke="#b0aa59"/><path d="M1243,35L1147,252L1307,263Z" fill="#a6c46f" stroke="#a6c46f"/><path d="M1243,35L1307,263L1432,38Z" fill="#93a152" stroke="#93a152"/><path d="M1432,38L1307,263L1464,279Z" fill="#83b669" stroke="#83b669"/><path d="M1432,38L1464,279L1539,74Z" fill="#809c4e" stroke="#809c4e"/><path d="M1539,74L1464,279L1526,258Z" fill="#80ad66" stroke="#80ad66"/><path d="M1539,74L1526,258L1692,58Z" fill="#809247" stroke="#809247"/><path d="M1692,58L1526,258L1771,185Z" fill="#80974f" stroke="#80974f"/><path d="M1692,58L1771,185L1912,65Z" fill="#806d33" stroke="#806d33"/><path d="M1912,65L1771,185L1847,281Z" fill="#808748" stroke="#808748"/><path d="M1912,65L1847,281L1877,381Z" fill="#808e5f" stroke="#808e5f"/><path d="M1912,65L1877,381L1860,881Z" fill="#649741" stroke="#649741"/><path d="M-131,278L-74,808L-75,639Z" fill="#825e2e" stroke="#825e2e"/><path d="M-131,278L-75,639L-94,416Z" fill="#c98043" stroke="#c98043"/><path d="M-131,278L-94,416L25,318Z" fill="#e0806b" stroke="#e0806b"/><path d="M-131,278L25,318L24,272Z" fill="#ea857b" stroke="#ea857b"/><path d="M24,272L25,318L191,276Z" fill="#f09c85" stroke="#f09c85"/><path d="M191,276L25,318L232,339Z" fill="#f1ad8a" stroke="#f1ad8a"/><path d="M191,276L232,339L346,251Z" fill="#fac397" stroke="#fac397"/><path d="M346,251L232,339L320,418Z" fill="#f5ce91" stroke="#f5ce91"/><path d="M346,251L320,418L469,363Z" fill="#f5db98" stroke="#f5db98"/><path d="M346,251L469,363L583,266Z" fill="#ffe5b3" stroke="#ffe5b3"/><path d="M583,266L469,363L711,351Z" fill="#f9f4bb" stroke="#f9f4bb"/><path d="M583,266L711,351L631,241Z" fill="#fff9c9" stroke="#fff9c9"/><path d="M631,241L711,351L881,219Z" fill="#f7f8c0" stroke="#f7f8c0"/><path d="M881,219L711,351L814,362Z" fill="#ecf8bd" stroke="#ecf8bd"/><path d="M881,219L814,362L1029,339Z" fill="#dff2b1" stroke="#dff2b1"/><path d="M881,219L1029,339L963,191Z" fill="#dbe89d" stroke="#dbe89d"/><path d="M963,191L1029,339L1147,252Z" fill="#cde398" stroke="#cde398"/><path d="M1147,252L1029,339L1167,397Z" fill="#b8e396" stroke="#b8e396"/><path d="M1147,252L1167,397L1307,263Z" fill="#aad999" stroke="#aad999"/><path d="M1307,263L1167,397L1264,423Z" fill="#97d683" stroke="#97d683"/><path d="M1307,263L1264,423L1453,322Z" fill="#88cc86" stroke="#88cc86"/><path d="M1307,263L1453,322L1464,279Z" fill="#82c48d" stroke="#82c48d"/><path d="M1464,279L1453,322L1526,258Z" fill="#80bd87" stroke="#80bd87"/><path d="M1526,258L1453,322L1530,385Z" fill="#7bbc81" stroke="#7bbc81"/><path d="M1526,258L1530,385L1697,426Z" fill="#74b470" stroke="#74b470"/><path d="M1526,258L1697,426L1771,185Z" fill="#80ab7e" stroke="#80ab7e"/><path d="M1771,185L1697,426L1847,281Z" fill="#80a279" stroke="#80a279"/><path d="M1847,281L1697,426L1877,381Z" fill="#739e60" stroke="#739e60"/><path d="M-94,416L-75,639L-22,575Z" fill="#956636" stroke="#956636"/><path d="M-94,416L-22,575L85,495Z" fill="#b27d44" stroke="#b27d44"/><path d="M-94,416L85,495L25,318Z" fill="#d68d5a" stroke="#d68d5a"/><path d="M25,318L85,495L232,339Z" fill="#e1a56e" stroke="#e1a56e"/><path d="M232,339L85,495L259,504Z" fill="#d9b661" stroke="#d9b661"/><path d="M232,339L259,504L320,418Z" fill="#e2c871" stroke="#e2c871"/><path d="M320,418L259,504L404,489Z" fill="#d3ce6a" stroke="#d3ce6a"/><path d="M320,418L404,489L469,363Z" fill="#e6de7f" stroke="#e6de7f"/><path d="M469,363L404,489L516,548Z" fill="#d6e07d" stroke="#d6e07d"/><path d="M469,363L516,548L641,508Z" fill="#d3e887" stroke="#d3e887"/><path d="M469,363L641,508L711,351Z" fill="#eaf7a2" stroke="#eaf7a2"/><path d="M711,351L641,508L814,362Z" fill="#e4fda6" stroke="#e4fda6"/><path d="M814,362L641,508L876,578Z" fill="#c1f08c" stroke="#c1f08c"/><path d="M814,362L876,578L919,515Z" fill="#b4ea80" stroke="#b4ea80"/><path d="M814,362L919,515L1029,339Z" fill="#caf28e" stroke="#caf28e"/><path d="M1029,339L919,515L1141,583Z" fill="#a1e26e" stroke="#a1e26e"/><path d="M1029,339L1141,583L1167,397Z" fill="#a4e370" stroke="#a4e370"/><path d="M1167,397L1141,583L1244,519Z" fill="#75ce61" stroke="#75ce61"/><path d="M1167,397L1244,519L1264,423Z" fill="#8ad767" stroke="#8ad767"/><path d="M1264,423L1244,519L1371,497Z" fill="#6ac85e" stroke="#6ac85e"/><path d="M1264,423L1371,497L1453,322Z" fill="#75ca6a" stroke="#75ca6a"/><path d="M1453,322L1371,497L1530,385Z" fill="#6cc169" stroke="#6cc169"/><path d="M1530,385L1371,497L1566,578Z" fill="#4cb351" stroke="#4cb351"/><path d="M1530,385L1566,578L1697,426Z" fill="#59ae4e" stroke="#59ae4e"/><path d="M1697,426L1566,578L1782,502Z" fill="#449c43" stroke="#449c43"/><path d="M1697,426L1782,502L1877,381Z" fill="#65a049" stroke="#65a049"/><path d="M1877,381L1782,502L1833,537Z" fill="#53943e" stroke="#53943e"/><path d="M1877,381L1833,537L1860,881Z" fill="#0e7128" stroke="#0e7128"/><path d="M-22,575L-75,639L25,671Z" fill="#6a582c" stroke="#6a582c"/><path d="M-22,575L25,671L85,495Z" fill="#86703a" stroke="#86703a"/><path d="M85,495L25,671L268,696Z" fill="#757b3d" stroke="#757b3d"/><path d="M85,495L268,696L259,504Z" fill="#989a4e" stroke="#989a4e"/><path d="M259,504L268,696L404,489Z" fill="#9fb259" stroke="#9fb259"/><path d="M404,489L268,696L432,689Z" fill="#7fac56" stroke="#7fac56"/><path d="M404,489L432,689L472,628Z" fill="#8cba63" stroke="#8cba63"/><path d="M404,489L472,628L516,548Z" fill="#a6c96f" stroke="#a6c96f"/><path d="M516,548L472,628L633,643Z" fill="#89c571" stroke="#89c571"/><path d="M516,548L633,643L641,508Z" fill="#a0d77f" stroke="#a0d77f"/><path d="M641,508L633,643L797,691Z" fill="#84d381" stroke="#84d381"/><path d="M641,508L797,691L876,578Z" fill="#85d47b" stroke="#85d47b"/><path d="M876,578L797,691L964,673Z" fill="#65c064" stroke="#65c064"/><path d="M876,578L964,673L919,515Z" fill="#74cd68" stroke="#74cd68"/><path d="M919,515L964,673L1141,583Z" fill="#67c75d" stroke="#67c75d"/><path d="M1141,583L964,673L1141,733Z" fill="#46ae4c" stroke="#46ae4c"/><path d="M1141,583L1141,733L1276,634Z" fill="#30a748" stroke="#30a748"/><path d="M1141,583L1276,634L1244,519Z" fill="#43b652" stroke="#43b652"/><path d="M1244,519L1276,634L1371,497Z" fill="#42b652" stroke="#42b652"/><path d="M1371,497L1276,634L1428,646Z" fill="#1fa547" stroke="#1fa547"/><path d="M1371,497L1428,646L1566,578Z" fill="#1ca044" stroke="#1ca044"/><path d="M1566,578L1428,646L1595,630Z" fill="#048d39" stroke="#048d39"/><path d="M1566,578L1595,630L1782,502Z" fill="#1e8e3a" stroke="#1e8e3a"/><path d="M1782,502L1595,630L1785,717Z" fill="#057b2d" stroke="#057b2d"/><path d="M1782,502L1785,717L1819,688Z" fill="#006e26" stroke="#006e26"/><path d="M1782,502L1819,688L1833,537Z" fill="#1b7c2f" stroke="#1b7c2f"/><path d="M1833,537L1819,688L1860,881Z" fill="#005918" stroke="#005918"/><path d="M-75,639L-74,808L25,671Z" fill="#69401e" stroke="#69401e"/><path d="M25,671L-74,808L46,868Z" fill="#6c3615" stroke="#6c3615"/><path d="M25,671L46,868L209,807Z" fill="#714a1f" stroke="#714a1f"/><path d="M25,671L209,807L268,696Z" fill="#756930" stroke="#756930"/><path d="M268,696L209,807L346,846Z" fill="#7b7231" stroke="#7b7231"/><path d="M268,696L346,846L432,689Z" fill="#7f8b40" stroke="#7f8b40"/><path d="M432,689L346,846L465,804Z" fill="#7f8a43" stroke="#7f8a43"/><path d="M432,689L465,804L472,628Z" fill="#7fa155" stroke="#7fa155"/><path d="M472,628L465,804L633,643Z" fill="#7fad60" stroke="#7fad60"/><path d="M633,643L465,804L643,871Z" fill="#7fa05b" stroke="#7fa05b"/><path d="M633,643L643,871L797,691Z" fill="#7eb46d" stroke="#7eb46d"/><path d="M797,691L643,871L843,874Z" fill="#759d58" stroke="#759d58"/><path d="M797,691L843,874L945,828Z" fill="#689a4d" stroke="#689a4d"/><path d="M797,691L945,828L964,673Z" fill="#62a953" stroke="#62a953"/><path d="M964,673L945,828L1141,733Z" fill="#539f43" stroke="#539f43"/><path d="M1141,733L945,828L1117,861Z" fill="#498a35" stroke="#498a35"/><path d="M1141,733L1117,861L1231,855Z" fill="#357e2e" stroke="#357e2e"/><path d="M1141,733L1231,855L1276,634Z" fill="#2a8d37" stroke="#2a8d37"/><path d="M1276,634L1231,855L1444,814Z" fill="#157c2d" stroke="#157c2d"/><path d="M1276,634L1444,814L1428,646Z" fill="#088734" stroke="#088734"/><path d="M1428,646L1444,814L1549,819Z" fill="#006e25" stroke="#006e25"/><path d="M1428,646L1549,819L1595,630Z" fill="#00792c" stroke="#00792c"/><path d="M1595,630L1549,819L1710,823Z" fill="#00611c" stroke="#00611c"/><path d="M1595,630L1710,823L1785,717Z" fill="#00621d" stroke="#00621d"/><path d="M1785,717L1710,823L1860,881Z" fill="#00430a" stroke="#00430a"/><path d="M1785,717L1860,881L1819,688Z" fill="#004b0f" stroke="#004b0f"/><path d="M46,868L843,874L643,871Z" fill="#7f7e49" stroke="#7f7e49"/><path d="M46,868L643,871L346,846Z" fill="#7f6c32" stroke="#7f6c32"/><path d="M46,868L346,846L209,807Z" fill="#775323" stroke="#775323"/><path d="M346,846L643,871L465,804Z" fill="#7f8345" stroke="#7f8345"/><path d="M843,874L1860,881L1117,861Z" fill="#1e6526" stroke="#1e6526"/><path d="M843,874L1117,861L945,828Z" fill="#5a863b" stroke="#5a863b"/><path d="M1117,861L1860,881L1231,855Z" fill="#045a1e" stroke="#045a1e"/><path d="M1231,855L1860,881L1549,819Z" fill="#004f15" stroke="#004f15"/><path d="M1231,855L1549,819L1444,814Z" fill="#03631e" stroke="#03631e"/><path d="M1549,819L1860,881L1710,823Z" fill="#00430c" stroke="#00430c"/></g></svg>