<?xml version="1.0" encoding="utf-8"?>
<!-- Generator: Adobe Illustrator 18.1.0, SVG Export Plug-In . SVG Version: 6.00 Build 0)  -->
<svg version="1.1" id="Layer_1" xmlns="http://www.w3.org/2000/svg" xmlns:xlink="http://www.w3.org/1999/xlink" x="0px" y="0px"
	 viewBox="783 -305 1695 741" enable-background="new 783 -305 1695 741" xml:space="preserve">
<g>
	<path fill="#727272" stroke="#727272" d="M655-389l-3,362l22-207L655-389z"/>
	<path fill="#4F4F4F" stroke="#4F4F4F" d="M655-389l19,155l150-91L655-389z"/>
	<path fill="#585858" stroke="#585858" d="M655-389l169,64l195-46L655-389z"/>
	<path fill="#6F6F6F" stroke="#6F6F6F" d="M655-389l364,18l257-52L655-389z"/>
	<path fill="#6E6E6E" stroke="#6E6E6E" d="M824-325l-150,91l180,29L824-325z"/>
	<path fill="#808080" stroke="#808080" d="M824-325l30,120l174-44L824-325z"/>
	<path fill="#737373" stroke="#737373" d="M824-325l204,76l-9-122L824-325z"/>
	<path fill="#8F8F8F" stroke="#8F8F8F" d="M1019-371l9,122l125,5L1019-371z"/>
	<path fill="#8E8E8E" stroke="#8E8E8E" d="M1019-371l134,127l55-83L1019-371z"/>
	<path fill="#898989" stroke="#898989" d="M1019-371l189,44l68-96L1019-371z"/>
	<path fill="#AFAFAF" stroke="#AFAFAF" d="M1208-327l-55,83l157,68L1208-327z"/>
	<path fill="#B7B7B7" stroke="#B7B7B7" d="M1208-327l102,151l122-68L1208-327z"/>
	<path fill="#9F9F9F" stroke="#9F9F9F" d="M1208-327l224,83l-24-151L1208-327z"/>
	<path fill="#949494" stroke="#949494" d="M1208-327l200-68l-132-28L1208-327z"/>
	<path fill="#9F9F9F" stroke="#9F9F9F" d="M1276-423l132,28l184-34L1276-423z"/>
	<path fill="#A1A1A1" stroke="#A1A1A1" d="M1408-395l24,151l160-185L1408-395z"/>
	<path fill="#A8A8A8" stroke="#A8A8A8" d="M1592-429l-160,185l211,12L1592-429z"/>
	<path fill="#9C9C9C" stroke="#9C9C9C" d="M1592-429l51,197l58-42L1592-429z"/>
	<path fill="#8F8F8F" stroke="#8F8F8F" d="M1592-429l109,155l93-79L1592-429z"/>
	<path fill="#898989" stroke="#898989" d="M1592-429l202,76l89-16L1592-429z"/>
	<path fill="#7A7A7A" stroke="#7A7A7A" d="M1592-429l291,60l293-61L1592-429z"/>
	<path fill="#ACACAC" stroke="#ACACAC" d="M1794-353l-93,79l45,160L1794-353z"/>
	<path fill="#A2A2A2" stroke="#A2A2A2" d="M1794-353l-48,239l206-165L1794-353z"/>
	<path fill="#7D7D7D" stroke="#7D7D7D" d="M1794-353l158,74l-69-90L1794-353z"/>
	<path fill="#737373" stroke="#737373" d="M1883-369l69,90l121-63L1883-369z"/>
	<path fill="#666666" stroke="#666666" d="M1883-369l190,27l103-88L1883-369z"/>
	<path fill="#797979" stroke="#797979" d="M2073-342l-121,63l74,9L2073-342z"/>
	<path fill="#6F6F6F" stroke="#6F6F6F" d="M2073-342l-47,72l189,3L2073-342z"/>
	<path fill="#595959" stroke="#595959" d="M2073-342l142,75l-39-163L2073-342z"/>
	<path fill="#4F4F4F" stroke="#4F4F4F" d="M2176-430l39,163l153-121L2176-430z"/>
	<path fill="#474747" stroke="#474747" d="M2176-430l192,42l200,1L2176-430z"/>
	<path fill="#5C5C5C" stroke="#5C5C5C" d="M2368-388l-153,121l107,36L2368-388z"/>
	<path fill="#595959" stroke="#595959" d="M2368-388l-46,157l153-16L2368-388z"/>
	<path fill="#424242" stroke="#424242" d="M2368-388l107,141l93-140L2368-388z"/>
	<path fill="#3D3D3D" stroke="#3D3D3D" d="M2568-387l-93,140l151-123L2568-387z"/>
	<path fill="#4C4C4C" stroke="#4C4C4C" d="M2626-370l-151,123l220,7L2626-370z"/>
	<path fill="#929292" stroke="#929292" d="M674-234L652-27l155-6L674-234z"/>
	<path fill="#929292" stroke="#929292" d="M674-234L807-33l47-172L674-234z"/>
	<path fill="#ABABAB" stroke="#ABABAB" d="M854-205L807-33l167,4L854-205z"/>
	<path fill="#ACACAC" stroke="#ACACAC" d="M854-205L974-29l54-220L854-205z"/>
	<path fill="#C3C3C3" stroke="#C3C3C3" d="M1028-249L974-29l155-25L1028-249z"/>
	<path fill="#BCBCBC" stroke="#BCBCBC" d="M1028-249l101,195l24-190L1028-249z"/>
	<path fill="#CECECE" stroke="#CECECE" d="M1153-244l-24,190l181-122L1153-244z"/>
	<path fill="#DEDEDE" stroke="#DEDEDE" d="M1310-176L1129-54l237,15L1310-176z"/>
	<path fill="#E6E6E6" stroke="#E6E6E6" d="M1310-176l56,137l48-25L1310-176z"/>
	<path fill="#DEDEDE" stroke="#DEDEDE" d="M1310-176l104,112l18-180L1310-176z"/>
	<path fill="#DADADA" stroke="#DADADA" d="M1432-244l-18,180l229-168L1432-244z"/>
	<path fill="#E0E0E0" stroke="#E0E0E0" d="M1643-232L1414-64l250-22L1643-232z"/>
	<path fill="#D4D4D4" stroke="#D4D4D4" d="M1643-232l21,146l82-28L1643-232z"/>
	<path fill="#BFBFBF" stroke="#BFBFBF" d="M1643-232l103,118l-45-160L1643-232z"/>
	<path fill="#C0C0C0" stroke="#C0C0C0" d="M1952-279l-206,165l184,61L1952-279z"/>
	<path fill="#A3A3A3" stroke="#A3A3A3" d="M1952-279l-22,226l96-217L1952-279z"/>
	<path fill="#B2B2B2" stroke="#B2B2B2" d="M2026-270l-96,217l160,11L2026-270z"/>
	<path fill="#949494" stroke="#949494" d="M2026-270l64,228l125-225L2026-270z"/>
	<path fill="#9E9E9E" stroke="#9E9E9E" d="M2215-267L2090-42l157,16L2215-267z"/>
	<path fill="#8B8B8B" stroke="#8B8B8B" d="M2215-267l32,241l75-205L2215-267z"/>
	<path fill="#989898" stroke="#989898" d="M2322-231l-75,205l62-21L2322-231z"/>
	<path fill="#848484" stroke="#848484" d="M2322-231l-13,184l166-200L2322-231z"/>
	<path fill="#888888" stroke="#888888" d="M2475-247L2309-47l245-73L2475-247z"/>
	<path fill="#6C6C6C" stroke="#6C6C6C" d="M2475-247l79,127l141-120L2475-247z"/>
	<path fill="#7E7E7E" stroke="#7E7E7E" d="M2695-240l-141,120l76,96L2695-240z"/>
	<path fill="#858585" stroke="#858585" d="M2695-240l-65,216l30,100L2695-240z"/>
	<path fill="#7E7E7E" stroke="#7E7E7E" d="M2695-240l-35,316l-17,500L2695-240z"/>
	<path fill="#646464" stroke="#646464" d="M652-27l57,530l-1-169L652-27z"/>
	<path fill="#8F8F8F" stroke="#8F8F8F" d="M652-27l56,361l-19-223L652-27z"/>
	<path fill="#9A9A9A" stroke="#9A9A9A" d="M652-27l37,138l119-98L652-27z"/>
	<path fill="#A2A2A2" stroke="#A2A2A2" d="M652-27l156,40l-1-46L652-27z"/>
	<path fill="#B3B3B3" stroke="#B3B3B3" d="M807-33l1,46l166-42L807-33z"/>
	<path fill="#BEBEBE" stroke="#BEBEBE" d="M974-29L808,13l207,21L974-29z"/>
	<path fill="#CFCFCF" stroke="#CFCFCF" d="M974-29l41,63l114-88L974-29z"/>
	<path fill="#D3D3D3" stroke="#D3D3D3" d="M1129-54l-114,88l88,79L1129-54z"/>
	<path fill="#DBDBDB" stroke="#DBDBDB" d="M1129-54l-26,167l149-55L1129-54z"/>
	<path fill="#E7E7E7" stroke="#E7E7E7" d="M1129-54l123,112l114-97L1129-54z"/>
	<path fill="#EFEFEF" stroke="#EFEFEF" d="M1366-39l-114,97l242-12L1366-39z"/>
	<path fill="#F6F6F6" stroke="#F6F6F6" d="M1366-39l128,85l-80-110L1366-39z"/>
	<path fill="#F2F2F2" stroke="#F2F2F2" d="M1414-64l80,110l170-132L1414-64z"/>
	<path fill="#EEEEEE" stroke="#EEEEEE" d="M1664-86L1494,46l103,11L1664-86z"/>
	<path fill="#E5E5E5" stroke="#E5E5E5" d="M1664-86l-67,143l215-23L1664-86z"/>
	<path fill="#DCDCDC" stroke="#DCDCDC" d="M1664-86l148,120l-66-148L1664-86z"/>
	<path fill="#D4D4D4" stroke="#D4D4D4" d="M1746-114l66,148l118-87L1746-114z"/>
	<path fill="#CECECE" stroke="#CECECE" d="M1930-53l-118,87l138,58L1930-53z"/>
	<path fill="#C4C4C4" stroke="#C4C4C4" d="M1930-53l20,145l140-134L1930-53z"/>
	<path fill="#BABABA" stroke="#BABABA" d="M2090-42L1950,92l97,26L2090-42z"/>
	<path fill="#B0B0B0" stroke="#B0B0B0" d="M2090-42l-43,160l189-101L2090-42z"/>
	<path fill="#AAAAAA" stroke="#AAAAAA" d="M2090-42l146,59l11-43L2090-42z"/>
	<path fill="#A5A5A5" stroke="#A5A5A5" d="M2247-26l-11,43l73-64L2247-26z"/>
	<path fill="#A2A2A2" stroke="#A2A2A2" d="M2309-47l-73,64l77,63L2309-47z"/>
	<path fill="#999999" stroke="#999999" d="M2309-47l4,127l167,41L2309-47z"/>
	<path fill="#999999" stroke="#999999" d="M2309-47l171,168l74-241L2309-47z"/>
	<path fill="#939393" stroke="#939393" d="M2554-120l-74,241l150-145L2554-120z"/>
	<path fill="#8A8A8A" stroke="#8A8A8A" d="M2630-24l-150,145l180-45L2630-24z"/>
	<path fill="#6F6F6F" stroke="#6F6F6F" d="M689,111l19,223l53-64L689,111z"/>
	<path fill="#878787" stroke="#878787" d="M689,111l72,159l107-80L689,111z"/>
	<path fill="#9D9D9D" stroke="#9D9D9D" d="M689,111l179,79L808,13L689,111z"/>
	<path fill="#B1B1B1" stroke="#B1B1B1" d="M808,13l60,177l147-156L808,13z"/>
	<path fill="#B7B7B7" stroke="#B7B7B7" d="M1015,34L868,190l174,9L1015,34z"/>
	<path fill="#C6C6C6" stroke="#C6C6C6" d="M1015,34l27,165l61-86L1015,34z"/>
	<path fill="#C4C4C4" stroke="#C4C4C4" d="M1103,113l-61,86l145-15L1103,113z"/>
	<path fill="#D6D6D6" stroke="#D6D6D6" d="M1103,113l84,71l65-126L1103,113z"/>
	<path fill="#D2D2D2" stroke="#D2D2D2" d="M1252,58l-65,126l112,59L1252,58z"/>
	<path fill="#D7D7D7" stroke="#D7D7D7" d="M1252,58l47,185l125-40L1252,58z"/>
	<path fill="#EAEAEA" stroke="#EAEAEA" d="M1252,58l172,145l70-157L1252,58z"/>
	<path fill="#ECECEC" stroke="#ECECEC" d="M1494,46l-70,157l173-146L1494,46z"/>
	<path fill="#D7D7D7" stroke="#D7D7D7" d="M1597,57l-173,146l235,70L1597,57z"/>
	<path fill="#CECECE" stroke="#CECECE" d="M1597,57l62,216l43-63L1597,57z"/>
	<path fill="#DBDBDB" stroke="#DBDBDB" d="M1597,57l105,153l110-176L1597,57z"/>
	<path fill="#C2C2C2" stroke="#C2C2C2" d="M1812,34l-110,176l222,68L1812,34z"/>
	<path fill="#C3C3C3" stroke="#C3C3C3" d="M1812,34l112,244l26-186L1812,34z"/>
	<path fill="#A7A7A7" stroke="#A7A7A7" d="M1950,92l-26,186l103-64L1950,92z"/>
	<path fill="#B4B4B4" stroke="#B4B4B4" d="M1950,92l77,122l20-96L1950,92z"/>
	<path fill="#A0A0A0" stroke="#A0A0A0" d="M2047,118l-20,96l127-22L2047,118z"/>
	<path fill="#A6A6A6" stroke="#A6A6A6" d="M2047,118l107,74l82-175L2047,118z"/>
	<path fill="#9E9E9E" stroke="#9E9E9E" d="M2236,17l-82,175l159-112L2236,17z"/>
	<path fill="#898989" stroke="#898989" d="M2313,80l-159,112l195,81L2313,80z"/>
	<path fill="#8A8A8A" stroke="#8A8A8A" d="M2313,80l36,193l131-152L2313,80z"/>
	<path fill="#787878" stroke="#787878" d="M2480,121l-131,152l216-76L2480,121z"/>
	<path fill="#858585" stroke="#858585" d="M2480,121l85,76l95-121L2480,121z"/>
	<path fill="#777777" stroke="#777777" d="M2660,76l-95,121l51,35L2660,76z"/>
	<path fill="#4B4B4B" stroke="#4B4B4B" d="M2660,76l-44,156l27,344L2660,76z"/>
	<path fill="#595959" stroke="#595959" d="M761,270l-53,64l100,32L761,270z"/>
	<path fill="#717171" stroke="#717171" d="M761,270l47,96l60-176L761,270z"/>
	<path fill="#727272" stroke="#727272" d="M868,190l-60,176l243,25L868,190z"/>
	<path fill="#919191" stroke="#919191" d="M868,190l183,201l-9-192L868,190z"/>
	<path fill="#A3A3A3" stroke="#A3A3A3" d="M1042,199l9,192l136-207L1042,199z"/>
	<path fill="#959595" stroke="#959595" d="M1187,184l-136,207l164-7L1187,184z"/>
	<path fill="#A3A3A3" stroke="#A3A3A3" d="M1187,184l28,200l40-61L1187,184z"/>
	<path fill="#B5B5B5" stroke="#B5B5B5" d="M1187,184l68,139l44-80L1187,184z"/>
	<path fill="#AAAAAA" stroke="#AAAAAA" d="M1299,243l-44,80l161,15L1299,243z"/>
	<path fill="#BDBDBD" stroke="#BDBDBD" d="M1299,243l117,95l8-135L1299,243z"/>
	<path fill="#B2B2B2" stroke="#B2B2B2" d="M1424,203l-8,135l164,48L1424,203z"/>
	<path fill="#B3B3B3" stroke="#B3B3B3" d="M1424,203l156,183l79-113L1424,203z"/>
	<path fill="#9B9B9B" stroke="#9B9B9B" d="M1659,273l-79,113l167-18L1659,273z"/>
	<path fill="#A7A7A7" stroke="#A7A7A7" d="M1659,273l88,95l-45-158L1659,273z"/>
	<path fill="#9F9F9F" stroke="#9F9F9F" d="M1702,210l45,158l177-90L1702,210z"/>
	<path fill="#848484" stroke="#848484" d="M1924,278l-177,90l177,60V278z"/>
	<path fill="#797979" stroke="#797979" d="M1924,278v150l135-99L1924,278z"/>
	<path fill="#888888" stroke="#888888" d="M1924,278l135,51l-32-115L1924,278z"/>
	<path fill="#888888" stroke="#888888" d="M2027,214l32,115l95-137L2027,214z"/>
	<path fill="#727272" stroke="#727272" d="M2154,192l-95,137l152,12L2154,192z"/>
	<path fill="#6E6E6E" stroke="#6E6E6E" d="M2154,192l57,149l138-68L2154,192z"/>
	<path fill="#5B5B5B" stroke="#5B5B5B" d="M2349,273l-138,68l167-16L2349,273z"/>
	<path fill="#636363" stroke="#636363" d="M2349,273l29,52l187-128L2349,273z"/>
	<path fill="#4F4F4F" stroke="#4F4F4F" d="M2565,197l-187,128l190,87L2565,197z"/>
	<path fill="#454545" stroke="#454545" d="M2565,197l3,215l34-29L2565,197z"/>
	<path fill="#565656" stroke="#565656" d="M2565,197l37,186l14-151L2565,197z"/>
	<path fill="#373737" stroke="#373737" d="M2616,232l-14,151l41,193L2616,232z"/>
	<path fill="#494949" stroke="#494949" d="M708,334l1,169l99-137L708,334z"/>
	<path fill="#434343" stroke="#434343" d="M808,366l-99,137l120,60L808,366z"/>
	<path fill="#515151" stroke="#515151" d="M808,366l21,197l163-61L808,366z"/>
	<path fill="#666666" stroke="#666666" d="M808,366l184,136l59-111L808,366z"/>
	<path fill="#6E6E6E" stroke="#6E6E6E" d="M1051,391l-59,111l137,39L1051,391z"/>
	<path fill="#7F7F7F" stroke="#7F7F7F" d="M1051,391l78,150l86-157L1051,391z"/>
	<path fill="#7F7F7F" stroke="#7F7F7F" d="M1215,384l-86,157l119-42L1215,384z"/>
	<path fill="#8E8E8E" stroke="#8E8E8E" d="M1215,384l33,115l7-176L1215,384z"/>
	<path fill="#979797" stroke="#979797" d="M1255,323l-7,176l168-161L1255,323z"/>
	<path fill="#8F8F8F" stroke="#8F8F8F" d="M1416,338l-168,161l178,67L1416,338z"/>
	<path fill="#9C9C9C" stroke="#9C9C9C" d="M1416,338l10,228l154-180L1416,338z"/>
	<path fill="#898989" stroke="#898989" d="M1580,386l-154,180l200,3L1580,386z"/>
	<path fill="#838383" stroke="#838383" d="M1580,386l46,183l102-46L1580,386z"/>
	<path fill="#8A8A8A" stroke="#8A8A8A" d="M1580,386l148,137l19-155L1580,386z"/>
	<path fill="#7E7E7E" stroke="#7E7E7E" d="M1747,368l-19,155l196-95L1747,368z"/>
	<path fill="#6D6D6D" stroke="#6D6D6D" d="M1924,428l-196,95l172,33L1924,428z"/>
	<path fill="#5F5F5F" stroke="#5F5F5F" d="M1924,428l-24,128l114-6L1924,428z"/>
	<path fill="#666666" stroke="#666666" d="M1924,428l90,122l45-221L1924,428z"/>
	<path fill="#545454" stroke="#545454" d="M2059,329l-45,221l213-41L2059,329z"/>
	<path fill="#585858" stroke="#585858" d="M2059,329l168,180l-16-168L2059,329z"/>
	<path fill="#454545" stroke="#454545" d="M2211,341l16,168l105,5L2211,341z"/>
	<path fill="#4C4C4C" stroke="#4C4C4C" d="M2211,341l121,173l46-189L2211,341z"/>
	<path fill="#3C3C3C" stroke="#3C3C3C" d="M2378,325l-46,189l161,4L2378,325z"/>
	<path fill="#3D3D3D" stroke="#3D3D3D" d="M2378,325l115,193l75-106L2378,325z"/>
	<path fill="#292929" stroke="#292929" d="M2568,412l-75,106l150,58L2568,412z"/>
	<path fill="#2E2E2E" stroke="#2E2E2E" d="M2568,412l75,164l-41-193L2568,412z"/>
	<path fill="#787878" stroke="#787878" d="M829,563l797,6l-200-3L829,563z"/>
	<path fill="#6B6B6B" stroke="#6B6B6B" d="M829,563l597,3l-297-25L829,563z"/>
	<path fill="#595959" stroke="#595959" d="M829,563l300-22l-137-39L829,563z"/>
	<path fill="#7B7B7B" stroke="#7B7B7B" d="M1129,541l297,25l-178-67L1129,541z"/>
	<path fill="#494949" stroke="#494949" d="M1626,569l1017,7l-743-20L1626,569z"/>
	<path fill="#717171" stroke="#717171" d="M1626,569l274-13l-172-33L1626,569z"/>
	<path fill="#3A3A3A" stroke="#3A3A3A" d="M1900,556l743,20l-629-26L1900,556z"/>
	<path fill="#313131" stroke="#313131" d="M2014,550l629,26l-311-62L2014,550z"/>
	<path fill="#3F3F3F" stroke="#3F3F3F" d="M2014,550l318-36l-105-5L2014,550z"/>
	<path fill="#292929" stroke="#292929" d="M2332,514l311,62l-150-58L2332,514z"/>
</g>
</svg>
