<?xml version="1.0" encoding="utf-8"?>
<!-- Generator: Adobe Illustrator 18.1.0, SVG Export Plug-In . SVG Version: 6.00 Build 0)  -->
<svg version="1.1" id="Layer_1" xmlns="http://www.w3.org/2000/svg" xmlns:xlink="http://www.w3.org/1999/xlink" x="0px" y="0px"
	 viewBox="0 0 2891.3 1417.3" enable-background="new 0 0 2891.3 1417.3" xml:space="preserve">
<g>
	<path fill="#3B3938" stroke="#3B3938" d="M-198.1-28.4l-4.8,575.4l35-329L-198.1-28.4z"/>
	<path fill="#3F3E4E" stroke="#3F3E4E" d="M-198.1-28.4l30.2,246.4L70.5,73.4L-198.1-28.4z"/>
	<path fill="#424150" stroke="#424150" d="M-198.1-28.4L70.5,73.4l310-73.1L-198.1-28.4z"/>
	<path fill="#393736" stroke="#393736" d="M-198.1-28.4L380.5,0.3L789-82.4L-198.1-28.4z"/>
	<path fill="#373535" stroke="#373535" d="M70.5,73.4L-167.9,218l286.1,46.1L70.5,73.4z"/>
	<path fill="#484545" stroke="#484545" d="M70.5,73.4l47.7,190.7l276.6-69.9L70.5,73.4z"/>
	<path fill="#3B3938" stroke="#3B3938" d="M70.5,73.4l324.3,120.8L380.5,0.3L70.5,73.4z"/>
	<path fill="#535050" stroke="#535050" d="M380.5,0.3l14.3,193.9l198.7,7.9L380.5,0.3z"/>
	<path fill="#535050" stroke="#535050" d="M380.5,0.3l213,201.9l87.4-131.9L380.5,0.3z"/>
	<path fill="#4D4B4A" stroke="#4D4B4A" d="M380.5,0.3l300.4,69.9L789-82.4L380.5,0.3z"/>
	<path fill="#787575" stroke="#787575" d="M680.9,70.2l-87.4,131.9l249.6,108.1L680.9,70.2z"/>
	<path fill="#827F7E" stroke="#827F7E" d="M680.9,70.2l162.1,240L1037,202.1L680.9,70.2z"/>
	<path fill="#636160" stroke="#636160" d="M680.9,70.2L1037,202.1l-38.1-240L680.9,70.2z"/>
	<path fill="#595656" stroke="#595656" d="M680.9,70.2L998.8-37.9L789-82.4L680.9,70.2z"/>
	<path fill="#636160" stroke="#636160" d="M789-82.4l209.8,44.5l292.5-54L789-82.4z"/>
	<path fill="#686565" stroke="#686565" d="M998.8-37.9l38.1,240l254.3-294.1L998.8-37.9z"/>
	<path fill="#737070" stroke="#737070" d="M1291.3-91.9L1037,202.1l335.4,19.1L1291.3-91.9z"/>
	<path fill="#666362" stroke="#666362" d="M1291.3-91.9l81.1,313.1l92.2-66.8L1291.3-91.9z"/>
	<path fill="#575454" stroke="#575454" d="M1291.3-91.9l173.3,246.4l147.8-125.6L1291.3-91.9z"/>
	<path fill="#514E4E" stroke="#514E4E" d="M1291.3-91.9l321.1,120.8l141.5-25.4L1291.3-91.9z"/>
	<path fill="#42403F" stroke="#42403F" d="M1291.3-91.9l462.6,95.4l465.7-97L1291.3-91.9z"/>
	<path fill="#787575" stroke="#787575" d="M1612.4,28.9l-147.8,125.6l71.5,254.3L1612.4,28.9z"/>
	<path fill="#6C6969" stroke="#6C6969" d="M1612.4,28.9l-76.3,379.9l327.4-262.3L1612.4,28.9z"/>
	<path fill="#464343" stroke="#464343" d="M1612.4,28.9l251.1,117.6L1753.9,3.4L1612.4,28.9z"/>
	<path fill="#3B3938" stroke="#3B3938" d="M1753.9,3.4l109.7,143.1l192.3-100.1L1753.9,3.4z"/>
	<path fill="#302E2E" stroke="#302E2E" d="M1753.9,3.4l302,42.9l163.7-139.9L1753.9,3.4z"/>
	<path fill="#403E3D" stroke="#403E3D" d="M2055.9,46.3l-192.3,100.1l117.6,14.3L2055.9,46.3z"/>
	<path fill="#373535" stroke="#373535" d="M2055.9,46.3l-74.7,114.4l300.4,4.8L2055.9,46.3z"/>
	<path fill="#232222" stroke="#232222" d="M2055.9,46.3l225.7,119.2l-62-259.1L2055.9,46.3z"/>
	<path fill="#191818" stroke="#191818" d="M2219.6-93.5l62,259.1l243.2-192.3L2219.6-93.5z"/>
	<path fill="#100F0F" stroke="#100F0F" d="M2219.6-93.5l305.2,66.8l317.9,1.6L2219.6-93.5z"/>
	<path fill="#252424" stroke="#252424" d="M2524.8-26.8l-243.2,192.3l170.1,57.2L2524.8-26.8z"/>
	<path fill="#232222" stroke="#232222" d="M2524.8-26.8l-73.1,249.6l243.2-25.4L2524.8-26.8z"/>
	<path fill="#070707" stroke="#070707" d="M2524.8-26.8l170.1,224.1l147.8-222.5L2524.8-26.8z"/>
	<path fill="#010101" stroke="#010101" d="M2842.7-25.2l-147.8,222.5l240-195.5L2842.7-25.2z"/>
	<path fill="#141414" stroke="#141414" d="M2934.9,1.8l-240,195.5l349.7,11.1L2934.9,1.8z"/>
	<path fill="#595656" stroke="#595656" d="M-167.9,218l-35,329l246.4-9.5L-167.9,218z"/>
	<path fill="#5B5858" stroke="#5B5858" d="M-167.9,218L43.5,537.5l74.7-273.4L-167.9,218z"/>
	<path fill="#787575" stroke="#787575" d="M118.2,264.1L43.5,537.5l265.5,6.4L118.2,264.1z"/>
	<path fill="#787575" stroke="#787575" d="M118.2,264.1L309,543.9l85.8-349.7L118.2,264.1z"/>
	<path fill="#979493" stroke="#979493" d="M394.8,194.2L309,543.9l246.4-39.7L394.8,194.2z"/>
	<path fill="#8C8989" stroke="#8C8989" d="M394.8,194.2l160.5,310l38.1-302L394.8,194.2z"/>
	<path fill="#A7A4A4" stroke="#A7A4A4" d="M593.5,202.1l-38.1,302l287.7-193.9L593.5,202.1z"/>
	<path fill="#CDC9C8" stroke="#CDC9C8" d="M843.1,310.2L555.4,504.1L932.1,528L843.1,310.2z"/>
	<path fill="#D6D2D2" stroke="#D6D2D2" d="M843.1,310.2l89,217.8l76.3-39.7L843.1,310.2z"/>
	<path fill="#CBC7C6" stroke="#CBC7C6" d="M843.1,310.2l165.3,178l28.6-286.1L843.1,310.2z"/>
	<path fill="#C7C2C2" stroke="#C7C2C2" d="M1037,202.1l-28.6,286.1l364-267L1037,202.1z"/>
	<path fill="#CACAC7" stroke="#CACAC7" d="M1372.4,221.2l-364,267l397.4-35L1372.4,221.2z"/>
	<path fill="#BDBDBA" stroke="#BDBDBA" d="M1372.4,221.2l33.4,232.1l130.3-44.5L1372.4,221.2z"/>
	<path fill="#A7A09F" stroke="#A7A09F" d="M1372.4,221.2l163.7,187.6l-71.5-254.3L1372.4,221.2z"/>
	<path fill="#A5A5A2" stroke="#A5A5A2" d="M1863.6,146.5l-327.4,262.3l292.5,97L1863.6,146.5z"/>
	<path fill="#868782" stroke="#868782" d="M1863.6,146.5l-35,359.2l152.6-344.9L1863.6,146.5z"/>
	<path fill="#959692" stroke="#959692" d="M1981.2,160.8l-152.6,344.9l254.3,17.5L1981.2,160.8z"/>
	<path fill="#787A74" stroke="#787A74" d="M1981.2,160.8l101.7,362.4l198.7-357.6L1981.2,160.8z"/>
	<path fill="#82837E" stroke="#82837E" d="M2281.6,165.6l-198.7,357.6l249.6,25.4L2281.6,165.6z"/>
	<path fill="#6E716B" stroke="#6E716B" d="M2281.6,165.6l50.9,383.1l119.2-325.9L2281.6,165.6z"/>
	<path fill="#7A7C76" stroke="#7A7C76" d="M2451.7,222.8l-119.2,325.9l98.6-33.4L2451.7,222.8z"/>
	<path fill="#696B65" stroke="#696B65" d="M2451.7,222.8L2431,515.3l263.9-317.9L2451.7,222.8z"/>
	<path fill="#6C6F69" stroke="#6C6F69" d="M2694.9,197.4L2431,515.3l389.4-116L2694.9,197.4z"/>
	<path fill="#5C5352" stroke="#5C5352" d="M2694.9,197.4l125.6,201.9l224.1-190.7L2694.9,197.4z"/>
	<path fill="#636660" stroke="#636660" d="M3044.6,208.5l-224.1,190.7l120.8,152.6L3044.6,208.5z"/>
	<path fill="#6B6D67" stroke="#6B6D67" d="M3044.6,208.5l-103.3,343.3l47.7,159L3044.6,208.5z"/>
	<path fill="#636660" stroke="#636660" d="M3044.6,208.5l-55.6,502.3l-27,794.8L3044.6,208.5z"/>
	<path fill="#2C2B2B" stroke="#2C2B2B" d="M-202.9,547.1l90.6,842.5l-1.6-268.6L-202.9,547.1z"/>
	<path fill="#575454" stroke="#575454" d="M-202.9,547.1l89,573.8L-144,766.4L-202.9,547.1z"/>
	<path fill="#636160" stroke="#636160" d="M-202.9,547.1l58.8,219.4L45.1,610.6L-202.9,547.1z"/>
	<path fill="#6C6969" stroke="#6C6969" d="M-202.9,547.1l248,63.6l-1.6-73.1L-202.9,547.1z"/>
	<path fill="#7F7C7C" stroke="#7F7C7C" d="M43.5,537.5l1.6,73.1L309,543.9L43.5,537.5z"/>
	<path fill="#8F8B8B" stroke="#8F8B8B" d="M309,543.9L45.1,610.6l329,33.4L309,543.9z"/>
	<path fill="#A7A4A4" stroke="#A7A4A4" d="M309,543.9L374.1,644l181.2-139.9L309,543.9z"/>
	<path fill="#ADAAAA" stroke="#ADAAAA" d="M555.4,504.1L374.1,644L514,769.6L555.4,504.1z"/>
	<path fill="#C7C2C2" stroke="#C7C2C2" d="M555.4,504.1L514,769.6l236.8-87.4L555.4,504.1z"/>
	<path fill="#D8D4D4" stroke="#D8D4D4" d="M555.4,504.1l195.5,178L932.1,528L555.4,504.1z"/>
	<path fill="#E0E0DE" stroke="#E0E0DE" d="M932.1,528L750.9,682.2l384.7-19.1L932.1,528z"/>
	<path fill="#E9E9E8" stroke="#E9E9E8" d="M932.1,528l203.5,135.1l-127.2-174.8L932.1,528z"/>
	<path fill="#E3E3E1" stroke="#E3E3E1" d="M1008.4,488.2l127.2,174.8l270.2-209.8L1008.4,488.2z"/>
	<path fill="#DBDAD8" stroke="#DBDAD8" d="M1405.8,453.3l-270.2,209.8l163.7,17.5L1405.8,453.3z"/>
	<path fill="#CDCCCA" stroke="#CDCCCA" d="M1405.8,453.3l-106.5,227.3L1641,644L1405.8,453.3z"/>
	<path fill="#C8C7C5" stroke="#C8C7C5" d="M1405.8,453.3L1641,644l-104.9-235.3L1405.8,453.3z"/>
	<path fill="#BDBDBA" stroke="#BDBDBA" d="M1536.1,408.8L1641,644l187.6-138.3L1536.1,408.8z"/>
	<path fill="#B1B1AD" stroke="#B1B1AD" d="M1828.6,505.7L1641,644l219.4,92.2L1828.6,505.7z"/>
	<path fill="#A8A7A4" stroke="#A8A7A4" d="M1828.6,505.7l31.8,230.5l222.5-213L1828.6,505.7z"/>
	<path fill="#9A9A96" stroke="#9A9A96" d="M2082.9,523.2l-222.5,213l154.2,41.3L2082.9,523.2z"/>
	<path fill="#93948F" stroke="#93948F" d="M2082.9,523.2l-68.4,254.3L2315,617L2082.9,523.2z"/>
	<path fill="#8F908B" stroke="#8F908B" d="M2082.9,523.2L2315,617l17.5-68.4L2082.9,523.2z"/>
	<path fill="#888985" stroke="#888985" d="M2332.5,548.6L2315,617l116-101.7L2332.5,548.6z"/>
	<path fill="#868782" stroke="#868782" d="M2431,515.3L2315,617l122.4,100.1L2431,515.3z"/>
	<path fill="#7C7E78" stroke="#7C7E78" d="M2431,515.3l6.4,201.9l265.5,65.2L2431,515.3z"/>
	<path fill="#7C7E78" stroke="#7C7E78" d="M2431,515.3l271.8,267l117.6-383.1L2431,515.3z"/>
	<path fill="#767872" stroke="#767872" d="M2820.5,399.2l-117.6,383.1l238.4-230.5L2820.5,399.2z"/>
	<path fill="#6E716B" stroke="#6E716B" d="M2941.3,551.8l-238.4,230.5l286.1-71.5L2941.3,551.8z"/>
	<path fill="#373535" stroke="#373535" d="M-144,766.4l30.2,354.5l84.2-101.7L-144,766.4z"/>
	<path fill="#4F4D4C" stroke="#4F4D4C" d="M-144,766.4l114.4,252.7L140.5,892L-144,766.4z"/>
	<path fill="#666362" stroke="#666362" d="M-144,766.4L140.5,892L45.1,610.6L-144,766.4z"/>
	<path fill="#7D7A79" stroke="#7D7A79" d="M45.1,610.6L140.5,892l233.7-248L45.1,610.6z"/>
	<path fill="#A09898" stroke="#A09898" d="M374.1,644L140.5,892l276.6,14.3L374.1,644z"/>
	<path fill="#B0AAA9" stroke="#B0AAA9" d="M374.1,644l42.9,262.3l97-136.7L374.1,644z"/>
	<path fill="#AAAAA6" stroke="#AAAAA6" d="M514,769.6l-97,136.7l230.5-23.8L514,769.6z"/>
	<path fill="#C0BFBD" stroke="#C0BFBD" d="M514,769.6l133.5,112.9l103.3-200.3L514,769.6z"/>
	<path fill="#BBBAB8" stroke="#BBBAB8" d="M750.9,682.2L647.6,882.4l178,93.8L750.9,682.2z"/>
	<path fill="#BDBDBA" stroke="#BDBDBA" d="M750.9,682.2l74.7,294.1l198.7-63.6L750.9,682.2z"/>
	<path fill="#D2D2D0" stroke="#D2D2D0" d="M750.9,682.2l273.4,230.5l111.3-249.6L750.9,682.2z"/>
	<path fill="#CDCCCA" stroke="#CDCCCA" d="M1135.5,663.1l-111.3,249.6l275-232.1L1135.5,663.1z"/>
	<path fill="#B3B3B0" stroke="#B3B3B0" d="M1299.3,680.6l-275,232.1l373.5,111.3L1299.3,680.6z"/>
	<path fill="#AAAAA6" stroke="#AAAAA6" d="M1299.3,680.6l98.6,343.3l68.4-100.1L1299.3,680.6z"/>
	<path fill="#B8B8B5" stroke="#B8B8B5" d="M1299.3,680.6l166.9,243.2L1641,644L1299.3,680.6z"/>
	<path fill="#9E9F9B" stroke="#9E9F9B" d="M1641,644l-174.8,279.8l352.9,108.1L1641,644z"/>
	<path fill="#A1A19D" stroke="#A1A19D" d="M1641,644l178,387.8l41.3-295.7L1641,644z"/>
	<path fill="#868782" stroke="#868782" d="M1860.4,736.2l-41.3,295.7l163.7-101.7L1860.4,736.2z"/>
	<path fill="#91928D" stroke="#91928D" d="M1860.4,736.2l122.4,193.9l31.8-152.6L1860.4,736.2z"/>
	<path fill="#80817C" stroke="#80817C" d="M2014.6,777.5l-31.8,152.6l201.9-35L2014.6,777.5z"/>
	<path fill="#868782" stroke="#868782" d="M2014.6,777.5l170.1,117.6L2315,617L2014.6,777.5z"/>
	<path fill="#82837E" stroke="#82837E" d="M2315,617l-130.3,278.2l252.7-178L2315,617z"/>
	<path fill="#6E716B" stroke="#6E716B" d="M2437.4,717.1l-252.7,178l310,128.8L2437.4,717.1z"/>
	<path fill="#6E716B" stroke="#6E716B" d="M2437.4,717.1l57.2,306.8l208.2-241.6L2437.4,717.1z"/>
	<path fill="#5E615B" stroke="#5E615B" d="M2702.8,782.3l-208.2,241.6l343.3-120.8L2702.8,782.3z"/>
	<path fill="#696B65" stroke="#696B65" d="M2702.8,782.3l135.1,120.8l151-192.3L2702.8,782.3z"/>
	<path fill="#5E615B" stroke="#5E615B" d="M2988.9,710.8l-151,192.3l81.1,55.6L2988.9,710.8z"/>
	<path fill="#3E443D" stroke="#3E443D" d="M2988.9,710.8l-69.9,248l42.9,546.8L2988.9,710.8z"/>
	<path fill="#4E4646" stroke="#4E4646" d="M-29.6,1019.2l-84.2,101.7l159,50.9L-29.6,1019.2z"/>
	<path fill="#5F5656" stroke="#5F5656" d="M-29.6,1019.2l74.7,152.6L140.5,892L-29.6,1019.2z"/>
	<path fill="#595D56" stroke="#595D56" d="M140.5,892l-95.4,279.8l386.3,39.7L140.5,892z"/>
	<path fill="#747670" stroke="#747670" d="M140.5,892l290.9,319.5l-14.3-305.2L140.5,892z"/>
	<path fill="#868782" stroke="#868782" d="M417.1,906.3l14.3,305.2l216.2-329L417.1,906.3z"/>
	<path fill="#787A74" stroke="#787A74" d="M647.6,882.4l-216.2,329l260.7-11.1L647.6,882.4z"/>
	<path fill="#868782" stroke="#868782" d="M647.6,882.4l44.5,317.9l63.6-97L647.6,882.4z"/>
	<path fill="#9A9A96" stroke="#9A9A96" d="M647.6,882.4l108.1,220.9l69.9-127.2L647.6,882.4z"/>
	<path fill="#8D8E89" stroke="#8D8E89" d="M825.6,976.2l-69.9,127.2l255.9,23.8L825.6,976.2z"/>
	<path fill="#9E9F9B" stroke="#9E9F9B" d="M825.6,976.2l186,151l12.7-214.6L825.6,976.2z"/>
	<path fill="#91928D" stroke="#91928D" d="M1024.3,912.7l-12.7,214.6l260.7,76.3L1024.3,912.7z"/>
	<path fill="#91928D" stroke="#91928D" d="M1024.3,912.7l248,290.9l125.6-179.6L1024.3,912.7z"/>
	<path fill="#7E7F7A" stroke="#7E7F7A" d="M1397.8,1023.9l-125.6,179.6l265.5-28.6L1397.8,1023.9z"/>
	<path fill="#868782" stroke="#868782" d="M1397.8,1023.9l139.9,151l-71.5-251.1L1397.8,1023.9z"/>
	<path fill="#80817C" stroke="#80817C" d="M1466.2,923.8l71.5,251.1l281.3-143.1L1466.2,923.8z"/>
	<path fill="#696B65" stroke="#696B65" d="M1819,1031.9l-281.3,143.1l281.3,95.4V1031.9z"/>
	<path fill="#60635D" stroke="#60635D" d="M1819,1031.9v238.4l214.6-157.4L1819,1031.9z"/>
	<path fill="#6E716B" stroke="#6E716B" d="M1819,1031.9l214.6,81.1l-50.9-182.8L1819,1031.9z"/>
	<path fill="#6C6F69" stroke="#6C6F69" d="M1982.8,930.1l50.9,182.8l151-217.8L1982.8,930.1z"/>
	<path fill="#595D56" stroke="#595D56" d="M2184.6,895.2l-151,217.8l241.6,19.1L2184.6,895.2z"/>
	<path fill="#575B54" stroke="#575B54" d="M2184.6,895.2l90.6,236.8l219.4-108.1L2184.6,895.2z"/>
	<path fill="#494E47" stroke="#494E47" d="M2494.6,1023.9L2275.2,1132l265.5-25.4L2494.6,1023.9z"/>
	<path fill="#4F544D" stroke="#4F544D" d="M2494.6,1023.9l46.1,82.7l297.2-203.5L2494.6,1023.9z"/>
	<path fill="#424842" stroke="#424842" d="M2837.9,903.1l-297.2,203.5l302,138.3L2837.9,903.1z"/>
	<path fill="#3B423B" stroke="#3B423B" d="M2837.9,903.1l4.8,341.8l54-46.1L2837.9,903.1z"/>
	<path fill="#464B44" stroke="#464B44" d="M2837.9,903.1l58.8,295.7l22.3-240L2837.9,903.1z"/>
	<path fill="#323A33" stroke="#323A33" d="M2919,958.7l-22.3,240l65.2,306.8L2919,958.7z"/>
	<path fill="#100F0F" stroke="#100F0F" d="M-113.8,1120.9l1.6,268.6l157.4-217.8L-113.8,1120.9z"/>
	<path fill="#070707" stroke="#070707" d="M45.1,1171.7l-157.4,217.8l190.7,95.4L45.1,1171.7z"/>
	<path fill="#1B1A1A" stroke="#1B1A1A" d="M45.1,1171.7l33.4,313.1l259.1-97L45.1,1171.7z"/>
	<path fill="#4E4D46" stroke="#4E4D46" d="M45.1,1171.7l292.5,216.2l93.8-176.4L45.1,1171.7z"/>
	<path fill="#555A53" stroke="#555A53" d="M431.4,1211.5l-93.8,176.4l217.8,62L431.4,1211.5z"/>
	<path fill="#656862" stroke="#656862" d="M431.4,1211.5l124,238.4l136.7-249.6L431.4,1211.5z"/>
	<path fill="#636660" stroke="#636660" d="M692.1,1200.4l-136.7,249.6l189.2-66.8L692.1,1200.4z"/>
	<path fill="#72746E" stroke="#72746E" d="M692.1,1200.4l52.5,182.8l11.1-279.8L692.1,1200.4z"/>
	<path fill="#7A7C76" stroke="#7A7C76" d="M755.6,1103.4l-11.1,279.8l267-255.9L755.6,1103.4z"/>
	<path fill="#72746E" stroke="#72746E" d="M1011.6,1127.2l-267,255.9l282.9,106.5L1011.6,1127.2z"/>
	<path fill="#80817C" stroke="#80817C" d="M1011.6,1127.2l15.9,362.4l244.8-286.1L1011.6,1127.2z"/>
	<path fill="#6E716B" stroke="#6E716B" d="M1272.2,1203.5l-244.8,286.1l317.9,4.8L1272.2,1203.5z"/>
	<path fill="#676A64" stroke="#676A64" d="M1272.2,1203.5l73.1,290.9l162.1-73.1L1272.2,1203.5z"/>
	<path fill="#6E716B" stroke="#6E716B" d="M1272.2,1203.5l235.3,217.8l30.2-246.4L1272.2,1203.5z"/>
	<path fill="#636660" stroke="#636660" d="M1537.7,1174.9l-30.2,246.4l311.6-151L1537.7,1174.9z"/>
	<path fill="#575B54" stroke="#575B54" d="M1819,1270.3l-311.6,151l273.4,52.5L1819,1270.3z"/>
	<path fill="#4C514A" stroke="#4C514A" d="M1819,1270.3l-38.1,203.5l181.2-9.5L1819,1270.3z"/>
	<path fill="#51554E" stroke="#51554E" d="M1819,1270.3l143.1,193.9l71.5-351.3L1819,1270.3z"/>
	<path fill="#464B44" stroke="#464B44" d="M2033.6,1112.9l-71.5,351.3l338.6-65.2L2033.6,1112.9z"/>
	<path fill="#494E47" stroke="#494E47" d="M2033.6,1112.9l267,286.1l-25.4-267L2033.6,1112.9z"/>
	<path fill="#3B423B" stroke="#3B423B" d="M2275.2,1132l25.4,267l166.9,7.9L2275.2,1132z"/>
	<path fill="#3F463F" stroke="#3F463F" d="M2275.2,1132l192.3,275l73.1-300.4L2275.2,1132z"/>
	<path fill="#353D36" stroke="#353D36" d="M2540.7,1106.6l-73.1,300.4l255.9,6.4L2540.7,1106.6z"/>
	<path fill="#353D36" stroke="#353D36" d="M2540.7,1106.6l182.8,306.8l119.2-168.5L2540.7,1106.6z"/>
	<path fill="#29332B" stroke="#29332B" d="M2842.7,1244.9l-119.2,168.5l238.4,92.2L2842.7,1244.9z"/>
	<path fill="#2D372F" stroke="#2D372F" d="M2842.7,1244.9l119.2,260.7l-65.2-306.8L2842.7,1244.9z"/>
	<path fill="#60635D" stroke="#60635D" d="M78.5,1484.9l1266.9,9.5l-317.9-4.8L78.5,1484.9z"/>
	<path fill="#5C5352" stroke="#5C5352" d="M78.5,1484.9l949,4.8l-472.1-39.7L78.5,1484.9z"/>
	<path fill="#212020" stroke="#212020" d="M78.5,1484.9l476.9-35l-217.8-62L78.5,1484.9z"/>
	<path fill="#61655E" stroke="#61655E" d="M555.4,1449.9l472.1,39.7l-282.9-106.5L555.4,1449.9z"/>
	<path fill="#3B423B" stroke="#3B423B" d="M1345.4,1494.4l1616.6,11.1l-1181-31.8L1345.4,1494.4z"/>
	<path fill="#595D56" stroke="#595D56" d="M1345.4,1494.4l435.5-20.7l-273.4-52.5L1345.4,1494.4z"/>
	<path fill="#323A33" stroke="#323A33" d="M1780.9,1473.8l1181,31.8l-999.8-41.3L1780.9,1473.8z"/>
	<path fill="#2F3831" stroke="#2F3831" d="M1962.1,1464.2l999.8,41.3l-494.3-98.6L1962.1,1464.2z"/>
	<path fill="#363E37" stroke="#363E37" d="M1962.1,1464.2l505.5-57.2l-166.9-7.9L1962.1,1464.2z"/>
	<path fill="#29332B" stroke="#29332B" d="M2467.6,1407l494.3,98.6l-238.4-92.2L2467.6,1407z"/>
</g>
<linearGradient id="SVGID_1_" gradientUnits="userSpaceOnUse" x1="1322.2124" y1="3980.5317" x2="1322.2124" y2="2979.1807" gradientTransform="matrix(1.4215 0 0 -1.4215 -432.042 5652.2383)">
	<stop  offset="0.1116" style="stop-color:#010101;stop-opacity:0"/>
	<stop  offset="1" style="stop-color:#010101"/>
</linearGradient>
<rect x="-1.8" y="-6.1" display="none" fill="url(#SVGID_1_)" fill-opacity="0.68" width="2898.5" height="1423.4"/>
</svg>
