<svg width="2560" height="1000" xmlns="http://www.w3.org/2000/svg"><g><path d="M-100,-58L-96,392L-95,88Z" fill="#f1fcff" stroke="#f1fcff"/><path d="M-100,-58L-95,88L69,-17Z" fill="#f9faff" stroke="#f9faff"/><path d="M-100,-58L69,-17L326,-123Z" fill="#f2f7fd" stroke="#f2f7fd"/><path d="M69,-17L-95,88L89,78Z" fill="#f3f9ff" stroke="#f3f9ff"/><path d="M69,-17L89,78L263,-17Z" fill="#eff5fc" stroke="#eff5fc"/><path d="M69,-17L263,-17L326,-123Z" fill="#edf3fa" stroke="#edf3fa"/><path d="M263,-17L89,78L245,77Z" fill="#eaf4fb" stroke="#eaf4fb"/><path d="M263,-17L245,77L394,100Z" fill="#e5f1f8" stroke="#e5f1f8"/><path d="M263,-17L394,100L326,-123Z" fill="#e7f0f8" stroke="#e7f0f8"/><path d="M326,-123L394,100L536,-121Z" fill="#e3eef5" stroke="#e3eef5"/><path d="M536,-121L394,100L579,95Z" fill="#ddebf3" stroke="#ddebf3"/><path d="M536,-121L579,95L658,58Z" fill="#d7e8f2" stroke="#d7e8f2"/><path d="M536,-121L658,58L671,-81Z" fill="#d5e7f1" stroke="#d5e7f1"/><path d="M536,-121L671,-81L799,-68Z" fill="#d2e5f1" stroke="#d2e5f1"/><path d="M536,-121L799,-68L1174,-48Z" fill="#c4deee" stroke="#c4deee"/><path d="M536,-121L1174,-48L1598,-82Z" fill="#b1d3e9" stroke="#b1d3e9"/><path d="M536,-121L1598,-82L2296,-87Z" fill="#9cc3e0" stroke="#9cc3e0"/><path d="M536,-121L2296,-87L2770,-91Z" fill="#8bb1d4" stroke="#8bb1d4"/><path d="M671,-81L658,58L799,-68Z" fill="#cee3f0" stroke="#cee3f0"/><path d="M799,-68L658,58L776,107Z" fill="#c9e2ef" stroke="#c9e2ef"/><path d="M799,-68L776,107L965,38Z" fill="#c1deee" stroke="#c1deee"/><path d="M799,-68L965,38L1027,-45Z" fill="#bddbec" stroke="#bddbec"/><path d="M799,-68L1027,-45L1174,-48Z" fill="#b7d8eb" stroke="#b7d8eb"/><path d="M1027,-45L965,38L1152,33Z" fill="#b3d6ea" stroke="#b3d6ea"/><path d="M1027,-45L1152,33L1174,-48Z" fill="#b0d3e8" stroke="#b0d3e8"/><path d="M1174,-48L1152,33L1236,-18Z" fill="#acd0e7" stroke="#acd0e7"/><path d="M1174,-48L1236,-18L1427,-23Z" fill="#a7cce5" stroke="#a7cce5"/><path d="M1174,-48L1427,-23L1598,-82Z" fill="#a0c7e2" stroke="#a0c7e2"/><path d="M1236,-18L1152,33L1266,111Z" fill="#a7cee6" stroke="#a7cee6"/><path d="M1236,-18L1266,111L1427,-23Z" fill="#a4cae4" stroke="#a4cae4"/><path d="M1427,-23L1266,111L1471,84Z" fill="#9cc7e2" stroke="#9cc7e2"/><path d="M1427,-23L1471,84L1598,-82Z" fill="#9ac2df" stroke="#9ac2df"/><path d="M1598,-82L1471,84L1528,127Z" fill="#95c1de" stroke="#95c1de"/><path d="M1598,-82L1528,127L1751,48Z" fill="#92bcdb" stroke="#92bcdb"/><path d="M1598,-82L1751,48L1767,-67Z" fill="#91b9d9" stroke="#91b9d9"/><path d="M1598,-82L1767,-67L2296,-87Z" fill="#8ab0d3" stroke="#8ab0d3"/><path d="M1767,-67L1751,48L1827,-38Z" fill="#8eb5d6" stroke="#8eb5d6"/><path d="M1767,-67L1827,-38L1990,-20Z" fill="#8bb1d4" stroke="#8bb1d4"/><path d="M1767,-67L1990,-20L2296,-87Z" fill="#85aacf" stroke="#85aacf"/><path d="M1827,-38L1751,48L1844,35Z" fill="#8cb4d6" stroke="#8cb4d6"/><path d="M1827,-38L1844,35L1990,-20Z" fill="#8ab0d3" stroke="#8ab0d3"/><path d="M1990,-20L1844,35L2006,36Z" fill="#86add1" stroke="#86add1"/><path d="M1990,-20L2006,36L2173,-24Z" fill="#83a8cd" stroke="#83a8cd"/><path d="M1990,-20L2173,-24L2296,-87Z" fill="#80a3ca" stroke="#80a3ca"/><path d="M2173,-24L2006,36L2190,57Z" fill="#7fa5cb" stroke="#7fa5cb"/><path d="M2173,-24L2190,57L2296,-87Z" fill="#80a0c8" stroke="#80a0c8"/><path d="M2296,-87L2190,57L2335,115Z" fill="#7e9dc6" stroke="#7e9dc6"/><path d="M2296,-87L2335,115L2430,32Z" fill="#7e9ac4" stroke="#7e9ac4"/><path d="M2296,-87L2430,32L2425,-55Z" fill="#8098c3" stroke="#8098c3"/><path d="M2296,-87L2425,-55L2649,-75Z" fill="#8095c1" stroke="#8095c1"/><path d="M2296,-87L2649,-75L2770,-91Z" fill="#808fbd" stroke="#808fbd"/><path d="M2425,-55L2430,32L2649,-75Z" fill="#8093bf" stroke="#8093bf"/><path d="M2649,-75L2430,32L2663,103Z" fill="#7e8fbd" stroke="#7e8fbd"/><path d="M2649,-75L2663,103L2770,-91Z" fill="#8089b9" stroke="#8089b9"/><path d="M2770,-91L2663,103L2795,116Z" fill="#7d87b7" stroke="#7d87b7"/><path d="M-95,88L-96,392L-54,276Z" fill="#e0f5ff" stroke="#e0f5ff"/><path d="M-95,88L-54,276L89,78Z" fill="#edfaff" stroke="#edfaff"/><path d="M89,78L-54,276L106,247Z" fill="#e6f8fe" stroke="#e6f8fe"/><path d="M89,78L106,247L245,77Z" fill="#e6f5fc" stroke="#e6f5fc"/><path d="M245,77L106,247L285,276Z" fill="#def3fa" stroke="#def3fa"/><path d="M245,77L285,276L399,215Z" fill="#daf1f8" stroke="#daf1f8"/><path d="M245,77L399,215L394,100Z" fill="#dcf0f7" stroke="#dcf0f7"/><path d="M394,100L399,215L493,198Z" fill="#d5eef5" stroke="#d5eef5"/><path d="M394,100L493,198L579,95Z" fill="#d5ecf4" stroke="#d5ecf4"/><path d="M579,95L493,198L658,203Z" fill="#cde9f2" stroke="#cde9f2"/><path d="M579,95L658,203L658,58Z" fill="#cce6f1" stroke="#cce6f1"/><path d="M658,58L658,203L776,107Z" fill="#c6e4f0" stroke="#c6e4f0"/><path d="M776,107L658,203L815,192Z" fill="#bfe2ef" stroke="#bfe2ef"/><path d="M776,107L815,192L965,38Z" fill="#bbdeee" stroke="#bbdeee"/><path d="M965,38L815,192L956,208Z" fill="#b3dbed" stroke="#b3dbed"/><path d="M965,38L956,208L1152,33Z" fill="#aed7eb" stroke="#aed7eb"/><path d="M1152,33L956,208L1172,252Z" fill="#a5d4e9" stroke="#a5d4e9"/><path d="M1152,33L1172,252L1266,111Z" fill="#a1cfe7" stroke="#a1cfe7"/><path d="M1266,111L1172,252L1327,274Z" fill="#96cbe5" stroke="#96cbe5"/><path d="M1266,111L1327,274L1418,170Z" fill="#96c9e3" stroke="#96c9e3"/><path d="M1266,111L1418,170L1471,84Z" fill="#98c7e2" stroke="#98c7e2"/><path d="M1471,84L1418,170L1528,127Z" fill="#92c3e0" stroke="#92c3e0"/><path d="M1528,127L1418,170L1577,210Z" fill="#8dc2df" stroke="#8dc2df"/><path d="M1528,127L1577,210L1751,48Z" fill="#8bbddc" stroke="#8bbddc"/><path d="M1751,48L1577,210L1743,260Z" fill="#85b9d9" stroke="#85b9d9"/><path d="M1751,48L1743,260L1880,240Z" fill="#81b5d6" stroke="#81b5d6"/><path d="M1751,48L1880,240L1844,35Z" fill="#85b3d5" stroke="#85b3d5"/><path d="M1844,35L1880,240L2006,36Z" fill="#81afd2" stroke="#81afd2"/><path d="M2006,36L1880,240L2023,278Z" fill="#79acd0" stroke="#79acd0"/><path d="M2006,36L2023,278L2190,57Z" fill="#79a7cd" stroke="#79a7cd"/><path d="M2190,57L2023,278L2200,281Z" fill="#70a3cb" stroke="#70a3cb"/><path d="M2190,57L2200,281L2302,221Z" fill="#72a0c8" stroke="#72a0c8"/><path d="M2190,57L2302,221L2335,115Z" fill="#769dc6" stroke="#769dc6"/><path d="M2335,115L2302,221L2422,240Z" fill="#719ac4" stroke="#719ac4"/><path d="M2335,115L2422,240L2430,32Z" fill="#7698c3" stroke="#7698c3"/><path d="M2430,32L2422,240L2604,178Z" fill="#7593c0" stroke="#7593c0"/><path d="M2430,32L2604,178L2663,103Z" fill="#788fbd" stroke="#788fbd"/><path d="M2663,103L2604,178L2794,284Z" fill="#728ab9" stroke="#728ab9"/><path d="M2663,103L2794,284L2795,116Z" fill="#7387b7" stroke="#7387b7"/><path d="M2795,116L2794,284L2812,333Z" fill="#667fb6" stroke="#667fb6"/><path d="M-54,276L-96,392L124,428Z" fill="#c0e5ff" stroke="#c0e5ff"/><path d="M-54,276L124,428L106,247Z" fill="#c9eafe" stroke="#c9eafe"/><path d="M106,247L124,428L285,276Z" fill="#c3e7fb" stroke="#c3e7fb"/><path d="M285,276L124,428L260,421Z" fill="#b2defa" stroke="#b2defa"/><path d="M285,276L260,421L426,362Z" fill="#b3def8" stroke="#b3def8"/><path d="M285,276L426,362L399,215Z" fill="#c2e5f7" stroke="#c2e5f7"/><path d="M399,215L426,362L493,198Z" fill="#c4e6f5" stroke="#c4e6f5"/><path d="M493,198L426,362L547,393Z" fill="#b3def4" stroke="#b3def4"/><path d="M493,198L547,393L658,203Z" fill="#bbe1f2" stroke="#bbe1f2"/><path d="M658,203L547,393L647,378Z" fill="#a8d8f2" stroke="#a8d8f2"/><path d="M658,203L647,378L815,192Z" fill="#b2dcf0" stroke="#b2dcf0"/><path d="M815,192L647,378L810,430Z" fill="#9bd1ef" stroke="#9bd1ef"/><path d="M815,192L810,430L956,208Z" fill="#a0d4ed" stroke="#a0d4ed"/><path d="M956,208L810,430L991,431Z" fill="#88c8ec" stroke="#88c8ec"/><path d="M956,208L991,431L1172,252Z" fill="#8dcbea" stroke="#8dcbea"/><path d="M1172,252L991,431L1180,360Z" fill="#7dc1e9" stroke="#7dc1e9"/><path d="M1172,252L1180,360L1327,274Z" fill="#83c3e6" stroke="#83c3e6"/><path d="M1327,274L1180,360L1240,427Z" fill="#74bbe5" stroke="#74bbe5"/><path d="M1327,274L1240,427L1443,353Z" fill="#70b7e3" stroke="#70b7e3"/><path d="M1327,274L1443,353L1418,170Z" fill="#81bfe2" stroke="#81bfe2"/><path d="M1418,170L1443,353L1522,322Z" fill="#79bae0" stroke="#79bae0"/><path d="M1418,170L1522,322L1577,210Z" fill="#82bedf" stroke="#82bedf"/><path d="M1577,210L1522,322L1743,260Z" fill="#77b6dc" stroke="#77b6dc"/><path d="M1743,260L1522,322L1702,410Z" fill="#64acda" stroke="#64acda"/><path d="M1743,260L1702,410L1842,393Z" fill="#5aa3d7" stroke="#5aa3d7"/><path d="M1743,260L1842,393L1880,240Z" fill="#66a8d5" stroke="#66a8d5"/><path d="M1880,240L1842,393L2032,323Z" fill="#5da0d2" stroke="#5da0d2"/><path d="M1880,240L2032,323L2023,278Z" fill="#64a2d0" stroke="#64a2d0"/><path d="M2023,278L2032,323L2200,281Z" fill="#5c9bcd" stroke="#5c9bcd"/><path d="M2200,281L2032,323L2121,412Z" fill="#5094cc" stroke="#5094cc"/><path d="M2200,281L2121,412L2216,478Z" fill="#428bca" stroke="#428bca"/><path d="M2200,281L2216,478L2363,360Z" fill="#4689c7" stroke="#4689c7"/><path d="M2200,281L2363,360L2302,221Z" fill="#5b92c6" stroke="#5b92c6"/><path d="M2302,221L2363,360L2422,240Z" fill="#5f90c4" stroke="#5f90c4"/><path d="M2422,240L2363,360L2428,377Z" fill="#5288c2" stroke="#5288c2"/><path d="M2422,240L2428,377L2654,350Z" fill="#5384bf" stroke="#5384bf"/><path d="M2422,240L2654,350L2604,178Z" fill="#6389bd" stroke="#6389bd"/><path d="M2604,178L2654,350L2794,284Z" fill="#5f81b9" stroke="#5f81b9"/><path d="M2794,284L2654,350L2812,333Z" fill="#5378b7" stroke="#5378b7"/><path d="M-96,392L-82,1171L-84,719Z" fill="#90b2e1" stroke="#90b2e1"/><path d="M-96,392L-84,719L-30,553Z" fill="#a0cff4" stroke="#a0cff4"/><path d="M-96,392L-30,553L81,532Z" fill="#a8d6f8" stroke="#a8d6f8"/><path d="M-96,392L81,532L124,428Z" fill="#addafa" stroke="#addafa"/><path d="M124,428L81,532L267,501Z" fill="#a1d1f5" stroke="#a1d1f5"/><path d="M124,428L267,501L260,421Z" fill="#a4d5f7" stroke="#a4d5f7"/><path d="M260,421L267,501L426,362Z" fill="#a3d5f6" stroke="#a3d5f6"/><path d="M426,362L267,501L388,560Z" fill="#99cef1" stroke="#99cef1"/><path d="M426,362L388,560L482,504Z" fill="#95cbf0" stroke="#95cbf0"/><path d="M426,362L482,504L547,393Z" fill="#9cd1f2" stroke="#9cd1f2"/><path d="M547,393L482,504L708,529Z" fill="#8cc7ed" stroke="#8cc7ed"/><path d="M547,393L708,529L647,378Z" fill="#8fcaef" stroke="#8fcaef"/><path d="M647,378L708,529L810,430Z" fill="#85c5ec" stroke="#85c5ec"/><path d="M810,430L708,529L860,513Z" fill="#78bce8" stroke="#78bce8"/><path d="M810,430L860,513L991,431Z" fill="#76bde9" stroke="#76bde9"/><path d="M991,431L860,513L1030,548Z" fill="#69b5e4" stroke="#69b5e4"/><path d="M991,431L1030,548L1164,468Z" fill="#65b3e4" stroke="#65b3e4"/><path d="M991,431L1164,468L1180,360Z" fill="#6db8e7" stroke="#6db8e7"/><path d="M1180,360L1164,468L1240,427Z" fill="#69b5e5" stroke="#69b5e5"/><path d="M1240,427L1164,468L1228,545Z" fill="#5dace0" stroke="#5dace0"/><path d="M1240,427L1228,545L1470,490Z" fill="#56a7dd" stroke="#56a7dd"/><path d="M1240,427L1470,490L1443,353Z" fill="#5dace0" stroke="#5dace0"/><path d="M1443,353L1470,490L1522,322Z" fill="#5fade0" stroke="#5fade0"/><path d="M1522,322L1470,490L1702,410Z" fill="#56a6dd" stroke="#56a6dd"/><path d="M1702,410L1470,490L1532,568Z" fill="#479cd7" stroke="#479cd7"/><path d="M1702,410L1532,568L1752,527Z" fill="#4296d3" stroke="#4296d3"/><path d="M1702,410L1752,527L1837,480Z" fill="#4394d1" stroke="#4394d1"/><path d="M1702,410L1837,480L1842,393Z" fill="#4999d4" stroke="#4999d4"/><path d="M1842,393L1837,480L2048,520Z" fill="#3e8ecd" stroke="#3e8ecd"/><path d="M1842,393L2048,520L2032,323Z" fill="#4592cf" stroke="#4592cf"/><path d="M2032,323L2048,520L2121,412Z" fill="#408dcc" stroke="#408dcc"/><path d="M2121,412L2048,520L2216,478Z" fill="#3583c6" stroke="#3583c6"/><path d="M2363,360L2216,478L2334,575Z" fill="#347bc0" stroke="#347bc0"/><path d="M2363,360L2334,575L2428,377Z" fill="#397cc0" stroke="#397cc0"/><path d="M2428,377L2334,575L2511,535Z" fill="#2f72bb" stroke="#2f72bb"/><path d="M2428,377L2511,535L2654,350Z" fill="#3c77bd" stroke="#3c77bd"/><path d="M2654,350L2511,535L2640,574Z" fill="#316bb5" stroke="#316bb5"/><path d="M2654,350L2640,574L2781,519Z" fill="#3267b3" stroke="#3267b3"/><path d="M2654,350L2781,519L2812,333Z" fill="#406fb7" stroke="#406fb7"/><path d="M2812,333L2781,519L2758,1117Z" fill="#1a4ba2" stroke="#1a4ba2"/><path d="M-30,553L-84,719L50,645Z" fill="#94c2ec" stroke="#94c2ec"/><path d="M-30,553L50,645L81,532Z" fill="#97c9f1" stroke="#97c9f1"/><path d="M81,532L50,645L239,666Z" fill="#8ec2ec" stroke="#8ec2ec"/><path d="M81,532L239,666L267,501Z" fill="#91c6ee" stroke="#91c6ee"/><path d="M267,501L239,666L388,560Z" fill="#8ac2eb" stroke="#8ac2eb"/><path d="M388,560L239,666L345,724Z" fill="#82b7e4" stroke="#82b7e4"/><path d="M388,560L345,724L471,718Z" fill="#7db2e0" stroke="#7db2e0"/><path d="M388,560L471,718L482,504Z" fill="#80bce6" stroke="#80bce6"/><path d="M482,504L471,718L701,645Z" fill="#77b4e2" stroke="#77b4e2"/><path d="M482,504L701,645L708,529Z" fill="#79bae5" stroke="#79bae5"/><path d="M708,529L701,645L801,675Z" fill="#69aedf" stroke="#69aedf"/><path d="M708,529L801,675L860,513Z" fill="#6bb2e2" stroke="#6bb2e2"/><path d="M860,513L801,675L997,664Z" fill="#5da8dd" stroke="#5da8dd"/><path d="M860,513L997,664L1030,548Z" fill="#5cabdf" stroke="#5cabdf"/><path d="M1030,548L997,664L1143,712Z" fill="#4e9dd7" stroke="#4e9dd7"/><path d="M1030,548L1143,712L1228,545Z" fill="#4da0d9" stroke="#4da0d9"/><path d="M1030,548L1228,545L1164,468Z" fill="#5aaadf" stroke="#5aaadf"/><path d="M1228,545L1143,712L1291,685Z" fill="#4595d2" stroke="#4595d2"/><path d="M1228,545L1291,685L1481,626Z" fill="#4094d2" stroke="#4094d2"/><path d="M1228,545L1481,626L1470,490Z" fill="#469bd6" stroke="#469bd6"/><path d="M1470,490L1481,626L1532,568Z" fill="#3f96d3" stroke="#3f96d3"/><path d="M1532,568L1481,626L1539,662Z" fill="#368dce" stroke="#368dce"/><path d="M1532,568L1539,662L1752,527Z" fill="#358dce" stroke="#358dce"/><path d="M1752,527L1539,662L1777,667Z" fill="#2f84c8" stroke="#2f84c8"/><path d="M1752,527L1777,667L1846,685Z" fill="#2a7fc5" stroke="#2a7fc5"/><path d="M1752,527L1846,685L1837,480Z" fill="#3186c9" stroke="#3186c9"/><path d="M1837,480L1846,685L1987,637Z" fill="#287ec4" stroke="#287ec4"/><path d="M1837,480L1987,637L2048,520Z" fill="#2e82c6" stroke="#2e82c6"/><path d="M2048,520L1987,637L2181,719Z" fill="#1f72bb" stroke="#1f72bb"/><path d="M2048,520L2181,719L2216,478Z" fill="#2275be" stroke="#2275be"/><path d="M2216,478L2181,719L2334,575Z" fill="#1f6eb9" stroke="#1f6eb9"/><path d="M2334,575L2181,719L2304,693Z" fill="#1a62b1" stroke="#1a62b1"/><path d="M2334,575L2304,693L2502,640Z" fill="#1b61b1" stroke="#1b61b1"/><path d="M2334,575L2502,640L2511,535Z" fill="#2065b3" stroke="#2065b3"/><path d="M2511,535L2502,640L2640,574Z" fill="#2060b0" stroke="#2060b0"/><path d="M2640,574L2502,640L2677,660Z" fill="#1c58aa" stroke="#1c58aa"/><path d="M2640,574L2677,660L2781,519Z" fill="#2059ab" stroke="#2059ab"/><path d="M2781,519L2677,660L2717,719Z" fill="#1b51a6" stroke="#1b51a6"/><path d="M2781,519L2717,719L2727,803Z" fill="#1949a0" stroke="#1949a0"/><path d="M2781,519L2727,803L2737,942Z" fill="#143e99" stroke="#143e99"/><path d="M2781,519L2737,942L2758,1117Z" fill="#0e2e8e" stroke="#0e2e8e"/><path d="M-84,719L-82,1171L-40,862Z" fill="#869ad1" stroke="#869ad1"/><path d="M-84,719L-40,862L19,831Z" fill="#8baadc" stroke="#8baadc"/><path d="M-84,719L19,831L50,645Z" fill="#8db4e3" stroke="#8db4e3"/><path d="M50,645L19,831L239,666Z" fill="#89b3e3" stroke="#89b3e3"/><path d="M239,666L19,831L256,838Z" fill="#82a8db" stroke="#82a8db"/><path d="M239,666L256,838L345,724Z" fill="#7fabdc" stroke="#7fabdc"/><path d="M345,724L256,838L430,859Z" fill="#789fd4" stroke="#789fd4"/><path d="M345,724L430,859L471,718Z" fill="#77a3d6" stroke="#77a3d6"/><path d="M471,718L430,859L551,852Z" fill="#719bd0" stroke="#719bd0"/><path d="M471,718L551,852L701,645Z" fill="#6fa2d6" stroke="#6fa2d6"/><path d="M701,645L551,852L702,880Z" fill="#6697cf" stroke="#6697cf"/><path d="M701,645L702,880L824,817Z" fill="#5f96cf" stroke="#5f96cf"/><path d="M701,645L824,817L801,675Z" fill="#609ed5" stroke="#609ed5"/><path d="M801,675L824,817L997,664Z" fill="#5899d3" stroke="#5899d3"/><path d="M997,664L824,817L949,845Z" fill="#518fcc" stroke="#518fcc"/><path d="M997,664L949,845L1079,784Z" fill="#4b8dcc" stroke="#4b8dcc"/><path d="M997,664L1079,784L1143,712Z" fill="#4991cf" stroke="#4991cf"/><path d="M1143,712L1079,784L1322,879Z" fill="#3f81c5" stroke="#3f81c5"/><path d="M1143,712L1322,879L1291,685Z" fill="#3d83c7" stroke="#3d83c7"/><path d="M1291,685L1322,879L1471,849Z" fill="#3478c0" stroke="#3478c0"/><path d="M1291,685L1471,849L1481,626Z" fill="#3682c7" stroke="#3682c7"/><path d="M1481,626L1471,849L1539,662Z" fill="#3180c5" stroke="#3180c5"/><path d="M1539,662L1471,849L1568,831Z" fill="#2c75be" stroke="#2c75be"/><path d="M1539,662L1568,831L1777,667Z" fill="#2b79c1" stroke="#2b79c1"/><path d="M1777,667L1568,831L1771,846Z" fill="#246cb8" stroke="#246cb8"/><path d="M1777,667L1771,846L1846,685Z" fill="#246fba" stroke="#246fba"/><path d="M1846,685L1771,846L1929,805Z" fill="#1f65b4" stroke="#1f65b4"/><path d="M1846,685L1929,805L1987,637Z" fill="#206cb8" stroke="#206cb8"/><path d="M1987,637L1929,805L2006,778Z" fill="#1c65b4" stroke="#1c65b4"/><path d="M1987,637L2006,778L2181,719Z" fill="#1a65b3" stroke="#1a65b3"/><path d="M2181,719L2006,778L2168,853Z" fill="#1458aa" stroke="#1458aa"/><path d="M2181,719L2168,853L2304,693Z" fill="#1457aa" stroke="#1457aa"/><path d="M2304,693L2168,853L2332,880Z" fill="#114da3" stroke="#114da3"/><path d="M2304,693L2332,880L2476,869Z" fill="#11479f" stroke="#11479f"/><path d="M2304,693L2476,869L2502,640Z" fill="#1650a6" stroke="#1650a6"/><path d="M2502,640L2476,869L2616,808Z" fill="#13469e" stroke="#13469e"/><path d="M2502,640L2616,808L2677,660Z" fill="#174da3" stroke="#174da3"/><path d="M2677,660L2616,808L2717,719Z" fill="#16459e" stroke="#16459e"/><path d="M2717,719L2616,808L2727,803Z" fill="#133e99" stroke="#133e99"/><path d="M-40,862L-82,1171L-17,996Z" fill="#808cc8" stroke="#808cc8"/><path d="M-40,862L-17,996L19,831Z" fill="#849cd3" stroke="#849cd3"/><path d="M19,831L-17,996L106,1029Z" fill="#7f92cd" stroke="#7f92cd"/><path d="M19,831L106,1029L179,939Z" fill="#7d93cd" stroke="#7d93cd"/><path d="M19,831L179,939L256,838Z" fill="#7e9cd2" stroke="#7e9cd2"/><path d="M256,838L179,939L422,961Z" fill="#7591cb" stroke="#7591cb"/><path d="M256,838L422,961L430,859Z" fill="#7293cc" stroke="#7293cc"/><path d="M430,859L422,961L514,983Z" fill="#6c89c5" stroke="#6c89c5"/><path d="M430,859L514,983L551,852Z" fill="#6b8ec8" stroke="#6b8ec8"/><path d="M551,852L514,983L702,880Z" fill="#6489c5" stroke="#6489c5"/><path d="M702,880L514,983L718,916Z" fill="#5e84c2" stroke="#5e84c2"/><path d="M702,880L718,916L824,817Z" fill="#5988c6" stroke="#5988c6"/><path d="M824,817L718,916L862,991Z" fill="#5380c1" stroke="#5380c1"/><path d="M824,817L862,991L960,918Z" fill="#4d7dc0" stroke="#4d7dc0"/><path d="M824,817L960,918L949,845Z" fill="#4d83c4" stroke="#4d83c4"/><path d="M949,845L960,918L1079,784Z" fill="#4681c4" stroke="#4681c4"/><path d="M1079,784L960,918L1118,994Z" fill="#4078be" stroke="#4078be"/><path d="M1079,784L1118,994L1322,879Z" fill="#3a74bc" stroke="#3a74bc"/><path d="M1322,879L1118,994L1275,1031Z" fill="#3265b3" stroke="#3265b3"/><path d="M1322,879L1275,1031L1480,1027Z" fill="#2a5eaf" stroke="#2a5eaf"/><path d="M1322,879L1480,1027L1471,849Z" fill="#2a65b3" stroke="#2a65b3"/><path d="M1471,849L1480,1027L1605,983Z" fill="#225bad" stroke="#225bad"/><path d="M1471,849L1605,983L1568,831Z" fill="#2564b3" stroke="#2564b3"/><path d="M1568,831L1605,983L1771,846Z" fill="#215fb0" stroke="#215fb0"/><path d="M1771,846L1605,983L1764,1025Z" fill="#1b52a7" stroke="#1b52a7"/><path d="M1771,846L1764,1025L1920,1025Z" fill="#154ba3" stroke="#154ba3"/><path d="M1771,846L1920,1025L1929,805Z" fill="#1754a8" stroke="#1754a8"/><path d="M1929,805L1920,1025L1980,1028Z" fill="#1147a0" stroke="#1147a0"/><path d="M1929,805L1980,1028L2006,778Z" fill="#1552a7" stroke="#1552a7"/><path d="M2006,778L1980,1028L2168,853Z" fill="#114ca3" stroke="#114ca3"/><path d="M2168,853L1980,1028L2200,952Z" fill="#0b409b" stroke="#0b409b"/><path d="M2168,853L2200,952L2332,880Z" fill="#0c429c" stroke="#0c429c"/><path d="M2332,880L2200,952L2342,970Z" fill="#0a3996" stroke="#0a3996"/><path d="M2332,880L2342,970L2434,984Z" fill="#093493" stroke="#093493"/><path d="M2332,880L2434,984L2476,869Z" fill="#0b3794" stroke="#0b3794"/><path d="M2476,869L2434,984L2669,953Z" fill="#0a2e8f" stroke="#0a2e8f"/><path d="M2476,869L2669,953L2616,808Z" fill="#0d3392" stroke="#0d3392"/><path d="M2616,808L2669,953L2727,803Z" fill="#0f3392" stroke="#0f3392"/><path d="M2727,803L2669,953L2737,942Z" fill="#0c2b8c" stroke="#0c2b8c"/><path d="M-17,996L-82,1171L99,1117Z" fill="#787ec0" stroke="#787ec0"/><path d="M-17,996L99,1117L106,1029Z" fill="#7884c3" stroke="#7884c3"/><path d="M106,1029L99,1117L243,1158Z" fill="#7079bc" stroke="#7079bc"/><path d="M106,1029L243,1158L179,939Z" fill="#7381c1" stroke="#7381c1"/><path d="M179,939L243,1158L369,1082Z" fill="#6d7cbd" stroke="#6d7cbd"/><path d="M179,939L369,1082L422,961Z" fill="#6e84c2" stroke="#6e84c2"/><path d="M422,961L369,1082L504,1092Z" fill="#667abb" stroke="#667abb"/><path d="M422,961L504,1092L514,983Z" fill="#667dbd" stroke="#667dbd"/><path d="M514,983L504,1092L733,1110Z" fill="#5c72b6" stroke="#5c72b6"/><path d="M514,983L733,1110L718,916Z" fill="#5978ba" stroke="#5978ba"/><path d="M718,916L733,1110L828,1071Z" fill="#4f6fb6" stroke="#4f6fb6"/><path d="M718,916L828,1071L862,991Z" fill="#4e74b9" stroke="#4e74b9"/><path d="M862,991L828,1071L993,1152Z" fill="#4264b0" stroke="#4264b0"/><path d="M862,991L993,1152L960,918Z" fill="#426ab4" stroke="#426ab4"/><path d="M960,918L993,1152L1118,994Z" fill="#3b67b3" stroke="#3b67b3"/><path d="M1118,994L993,1152L1124,1166Z" fill="#3358a9" stroke="#3358a9"/><path d="M1118,994L1124,1166L1275,1031Z" fill="#305aab" stroke="#305aab"/><path d="M1275,1031L1124,1166L1332,1109Z" fill="#2951a5" stroke="#2951a5"/><path d="M1275,1031L1332,1109L1480,1027Z" fill="#2653a7" stroke="#2653a7"/><path d="M1480,1027L1332,1109L1473,1098Z" fill="#204da3" stroke="#204da3"/><path d="M1480,1027L1473,1098L1571,1155Z" fill="#1b47a0" stroke="#1b47a0"/><path d="M1480,1027L1571,1155L1605,983Z" fill="#1b4ba2" stroke="#1b4ba2"/><path d="M1605,983L1571,1155L1682,1157Z" fill="#16419c" stroke="#16419c"/><path d="M1605,983L1682,1157L1764,1025Z" fill="#16459e" stroke="#16459e"/><path d="M1764,1025L1682,1157L1928,1126Z" fill="#0f3996" stroke="#0f3996"/><path d="M1764,1025L1928,1126L1920,1025Z" fill="#0e3b98" stroke="#0e3b98"/><path d="M1920,1025L1928,1126L1980,1028Z" fill="#0b3795" stroke="#0b3795"/><path d="M1980,1028L1928,1126L1998,1137Z" fill="#083191" stroke="#083191"/><path d="M1980,1028L1998,1137L2122,1072Z" fill="#063091" stroke="#063091"/><path d="M1980,1028L2122,1072L2200,952Z" fill="#073695" stroke="#073695"/><path d="M2200,952L2122,1072L2340,1130Z" fill="#032b8d" stroke="#032b8d"/><path d="M2200,952L2340,1130L2342,970Z" fill="#052d8e" stroke="#052d8e"/><path d="M2342,970L2340,1130L2434,984Z" fill="#05288b" stroke="#05288b"/><path d="M2434,984L2340,1130L2516,1149Z" fill="#011c83" stroke="#011c83"/><path d="M2434,984L2516,1149L2669,953Z" fill="#052085" stroke="#052085"/><path d="M2669,953L2516,1149L2588,1158Z" fill="#01147e" stroke="#01147e"/><path d="M2669,953L2588,1158L2758,1117Z" fill="#02127c" stroke="#02127c"/><path d="M2669,953L2758,1117L2737,942Z" fill="#061b82" stroke="#061b82"/><path d="M-82,1171L1124,1166L243,1158Z" fill="#636eaf" stroke="#636eaf"/><path d="M-82,1171L243,1158L99,1117Z" fill="#7477b9" stroke="#7477b9"/><path d="M243,1158L1124,1166L993,1152Z" fill="#4961a9" stroke="#4961a9"/><path d="M243,1158L993,1152L733,1110Z" fill="#5366ad" stroke="#5366ad"/><path d="M243,1158L733,1110L504,1092Z" fill="#606db2" stroke="#606db2"/><path d="M243,1158L504,1092L369,1082Z" fill="#6672b6" stroke="#6672b6"/><path d="M733,1110L993,1152L828,1071Z" fill="#4460ad" stroke="#4460ad"/><path d="M1124,1166L2588,1158L1682,1157Z" fill="#0e3590" stroke="#0e3590"/><path d="M1124,1166L1682,1157L1571,1155Z" fill="#1d459b" stroke="#1d459b"/><path d="M1124,1166L1571,1155L1332,1109Z" fill="#244a9f" stroke="#244a9f"/><path d="M1332,1109L1571,1155L1473,1098Z" fill="#1d459e" stroke="#1d459e"/><path d="M1682,1157L2588,1158L1998,1137Z" fill="#032788" stroke="#032788"/><path d="M1682,1157L1998,1137L1928,1126Z" fill="#0b3190" stroke="#0b3190"/><path d="M1998,1137L2588,1158L2516,1149Z" fill="#00197f" stroke="#00197f"/><path d="M1998,1137L2516,1149L2340,1130Z" fill="#001d83" stroke="#001d83"/><path d="M1998,1137L2340,1130L2122,1072Z" fill="#002689" stroke="#002689"/></g></svg>